<?xml version="1.0" encoding="utf-8"?>
<!-- Generator: Adobe Illustrator 22.1.0, SVG Export Plug-In . SVG Version: 6.00 Build 0)  -->
<svg version="1.1" id="Capa_1" xmlns="http://www.w3.org/2000/svg" xmlns:xlink="http://www.w3.org/1999/xlink" x="0px" y="0px"
	 viewBox="0 0 748 305" style="enable-background:new 0 0 748 305;" xml:space="preserve">
<style type="text/css">
	.st0{opacity:0.3;}
	.st1{fill:#50378D;}
	.st2{fill:#F49E82;}
	.st3{fill:#F0E400;}
	.st4{fill:#D06B14;}
	.st5{fill:#541643;}
</style>
<g class="st0">
	<path class="st1" d="M134.7,133.3c1.2,0.9,3.3,1.8,6.2,2.9c2.9,1.1,6.2,1.6,10,1.6c3.7,0,6.6-0.6,8.8-1.9c2.2-1.3,3.9-3.2,5-5.8
		c1.1-2.6,1.9-5.9,2.2-9.8c0.3-3.9,0.5-8.5,0.5-13.7V82.3h18.1v24.2c0,7.1-0.4,13.6-1.1,19.4c-0.7,5.8-2.3,10.8-4.7,14.9
		c-2.4,4.1-5.9,7.3-10.4,9.6c-4.6,2.3-10.7,3.4-18.4,3.4c-7.9,0-14.6-1.9-20.2-5.8L134.7,133.3z"/>
	<path class="st1" d="M226.1,153.6c-7.1,0-12.5-2.3-16.2-6.8c-3.7-4.6-5.5-11.3-5.5-20.2V83.5h17.6v39.3c0,10.6,3.8,15.9,11.4,15.9
		c3.4,0,6.7-1,9.9-3.1c3.2-2.1,5.8-5.2,7.8-9.4V83.5h17.6v48.6c0,1.8,0.3,3.2,1,3.9c0.7,0.8,1.7,1.2,3.2,1.3v15
		c-1.8,0.3-3.2,0.6-4.4,0.7c-1.2,0.1-2.3,0.1-3.2,0.1c-3.2,0-5.7-0.7-7.7-2.2c-2-1.4-3.1-3.4-3.5-6l-0.4-5.5
		c-3.1,4.7-7,8.3-11.8,10.6C237.2,152.4,231.9,153.6,226.1,153.6z"/>
	<path class="st1" d="M308,153.6c-3.3,0-6.4-0.5-9.3-1.6c-2.9-1.1-5.4-2.6-7.5-4.6c-2.1-2-3.7-4.3-4.9-6.9c-1.2-2.6-1.8-5.5-1.8-8.7
		c0-3.2,0.7-6.2,2.2-9c1.4-2.8,3.5-5.1,6-7c2.6-1.9,5.7-3.4,9.3-4.5c3.6-1.1,7.5-1.6,11.8-1.6c3.1,0,6.1,0.3,9,0.8
		c2.9,0.5,5.5,1.3,7.8,2.2v-3.9c0-4.6-1.3-8.1-3.9-10.5c-2.6-2.5-6.4-3.7-11.5-3.7c-3.7,0-7.3,0.7-10.8,2c-3.5,1.3-7.1,3.2-10.8,5.8
		l-5.4-11.2c8.8-5.9,18.4-8.8,28.6-8.8c9.9,0,17.6,2.4,23.1,7.3c5.5,4.9,8.2,11.9,8.2,21.1v21.4c0,1.8,0.3,3.2,1,3.9
		c0.7,0.8,1.7,1.2,3.2,1.3v15c-3,0.6-5.6,0.9-7.8,0.9c-3.3,0-5.9-0.7-7.7-2.2c-1.8-1.5-2.9-3.5-3.4-5.9l-0.4-3.8
		c-3.1,4-6.8,7.1-11.2,9.2C317.7,152.6,313,153.6,308,153.6z M313,140.7c3,0,5.8-0.5,8.5-1.6c2.7-1.1,4.8-2.5,6.2-4.2
		c1.9-1.5,2.9-3.2,2.9-5v-7.9c-2.1-0.8-4.4-1.4-6.8-1.9c-2.5-0.5-4.8-0.7-7.1-0.7c-4.6,0-8.3,1-11.2,3.1c-2.9,2.1-4.3,4.7-4.3,7.8
		c0,3,1.1,5.5,3.4,7.4C306.9,139.8,309.7,140.7,313,140.7z"/>
	<path class="st1" d="M431.5,152.3h-17.6v-38.6c0-5.5-1-9.5-2.9-12.1c-1.9-2.5-4.6-3.8-8-3.8c-1.8,0-3.5,0.4-5.4,1.1
		c-1.8,0.7-3.6,1.7-5.2,3c-1.6,1.3-3.1,2.8-4.4,4.5c-1.3,1.8-2.3,3.7-2.9,5.8v40.2h-17.6V83.5h15.9v12.7c2.5-4.4,6.2-7.8,11-10.2
		c4.8-2.5,10.2-3.7,16.3-3.7c4.3,0,7.8,0.8,10.5,2.4c2.7,1.6,4.8,3.6,6.3,6.2c1.5,2.5,2.5,5.4,3.1,8.7c0.6,3.2,0.9,6.5,0.9,9.9
		V152.3z"/>
	<path class="st1" d="M134.4,262.3v-68.9h18.1v68.9H134.4z"/>
	<path class="st1" d="M198.8,236.2c-4.6,0-8.8-0.9-12.6-2.8c-3.8-1.8-7-4.4-9.8-7.6c-2.8-3.2-4.9-6.9-6.4-11.1
		c-1.5-4.2-2.2-8.7-2.2-13.4c0-5,0.8-9.6,2.4-13.9c1.6-4.3,3.8-8.1,6.6-11.3c2.8-3.2,6.2-5.8,10.1-7.6c3.9-1.8,8.3-2.8,13-2.8
		c5.3,0,10,1.2,14.1,3.6c4,2.4,7.4,5.6,10,9.7v-12.1h15.4v65.6c0,5.1-1,9.6-2.9,13.7c-1.9,4-4.6,7.4-8,10.2
		c-3.4,2.8-7.4,4.9-12.1,6.4c-4.7,1.5-9.8,2.2-15.3,2.2c-7.5,0-13.9-1.2-19-3.7c-5.1-2.5-9.5-6-13.2-10.6l9.6-9.3
		c2.6,3.2,5.9,5.8,9.9,7.6c4,1.8,8.2,2.8,12.7,2.8c2.7,0,5.3-0.4,7.8-1.1c2.5-0.7,4.7-1.9,6.6-3.5c1.9-1.6,3.4-3.6,4.5-6
		c1.1-2.5,1.6-5.3,1.6-8.7v-8.7c-2.3,3.9-5.5,7-9.6,9.1C208,235.1,203.6,236.2,198.8,236.2z M204.7,222.1c1.9,0,3.8-0.3,5.5-0.9
		c1.8-0.6,3.4-1.4,4.9-2.5c1.5-1.1,2.8-2.3,3.9-3.7c1.1-1.4,2-2.9,2.6-4.5v-16.4c-1.6-4-4.1-7.3-7.4-9.7c-3.4-2.5-6.9-3.7-10.6-3.7
		c-2.7,0-5.2,0.6-7.4,1.8c-2.2,1.2-4.1,2.8-5.7,4.7c-1.6,2-2.8,4.2-3.6,6.8c-0.8,2.5-1.2,5.2-1.2,7.9c0,2.8,0.5,5.4,1.4,7.9
		c1,2.5,2.3,4.6,4,6.4c1.7,1.8,3.7,3.3,6,4.3C199.5,221.6,202,222.1,204.7,222.1z"/>
	<path class="st1" d="M322.1,235.8h-17.6v-38.6c0-5.5-1-9.5-2.9-12.1c-1.9-2.5-4.6-3.8-8-3.8c-1.8,0-3.5,0.4-5.4,1.1
		c-1.8,0.7-3.6,1.7-5.2,3c-1.6,1.3-3.1,2.8-4.4,4.5c-1.3,1.8-2.3,3.7-2.9,5.8v40.2h-17.6v-68.9H274v12.7c2.5-4.4,6.2-7.8,11-10.2
		c4.8-2.5,10.3-3.7,16.3-3.7c4.3,0,7.8,0.8,10.5,2.4c2.7,1.6,4.8,3.6,6.3,6.2c1.5,2.5,2.5,5.4,3.1,8.7c0.6,3.2,0.9,6.5,0.9,9.9
		V235.8z"/>
	<path class="st1" d="M359.1,237.1c-3.3,0-6.4-0.5-9.3-1.6c-2.9-1.1-5.4-2.6-7.5-4.6c-2.1-2-3.7-4.3-4.9-6.9
		c-1.2-2.6-1.8-5.5-1.8-8.7c0-3.2,0.7-6.2,2.2-9c1.4-2.8,3.5-5.1,6-7c2.6-1.9,5.7-3.4,9.3-4.5c3.6-1.1,7.5-1.6,11.8-1.6
		c3.1,0,6.1,0.3,9,0.8c2.9,0.5,5.5,1.3,7.8,2.2v-3.9c0-4.6-1.3-8.1-3.9-10.5c-2.6-2.5-6.4-3.7-11.5-3.7c-3.7,0-7.3,0.7-10.8,2
		c-3.5,1.3-7.1,3.2-10.8,5.8l-5.4-11.2c8.8-5.9,18.4-8.8,28.6-8.8c9.9,0,17.6,2.4,23.1,7.3c5.5,4.9,8.2,11.9,8.2,21.1v21.4
		c0,1.8,0.3,3.2,1,3.9c0.7,0.8,1.7,1.2,3.2,1.3v15c-3,0.6-5.6,0.9-7.8,0.9c-3.3,0-5.9-0.7-7.7-2.2c-1.8-1.5-2.9-3.5-3.4-5.9
		l-0.4-3.8c-3.1,4-6.8,7.1-11.2,9.2C368.8,236,364.1,237.1,359.1,237.1z M364.1,224.2c3,0,5.8-0.5,8.5-1.6c2.7-1.1,4.8-2.5,6.2-4.2
		c1.9-1.5,2.9-3.2,2.9-5v-7.9c-2.1-0.8-4.4-1.4-6.8-1.9c-2.5-0.5-4.8-0.7-7.1-0.7c-4.6,0-8.3,1-11.2,3.1c-2.9,2.1-4.3,4.7-4.3,7.8
		c0,3,1.1,5.5,3.4,7.4C358,223.2,360.8,224.2,364.1,224.2z"/>
	<path class="st1" d="M415.8,200.7c0-4.8,0.8-9.4,2.5-13.7c1.7-4.3,4.1-8.1,7.2-11.3c3.2-3.2,7-5.8,11.4-7.8
		c4.5-1.9,9.5-2.9,15.1-2.9c7.5,0,13.9,1.6,19.3,4.9c5.3,3.2,9.3,7.5,11.9,12.7l-17.2,5.3c-1.5-2.5-3.5-4.5-5.9-5.8
		c-2.5-1.4-5.2-2-8.1-2c-2.5,0-4.9,0.5-7.1,1.5c-2.2,1-4.1,2.4-5.7,4.2c-1.6,1.8-2.9,4-3.8,6.5c-0.9,2.5-1.4,5.3-1.4,8.4
		c0,3.1,0.5,5.9,1.4,8.4c1,2.5,2.3,4.7,3.9,6.6c1.6,1.8,3.5,3.3,5.7,4.3c2.2,1,4.5,1.5,7,1.5c3.2,0,6.1-0.8,8.7-2.4
		c2.7-1.6,4.5-3.5,5.6-5.8l17.2,5.3c-2.4,5.3-6.3,9.5-11.7,12.9c-5.4,3.3-12,5-19.6,5c-5.6,0-10.6-1-15.1-2.9
		c-4.5-1.9-8.3-4.5-11.4-7.8c-3.2-3.3-5.6-7.1-7.3-11.4C416.6,209.9,415.8,205.4,415.8,200.7z"/>
	<rect x="495.7" y="141.9" class="st1" width="17.6" height="17.5"/>
	<rect x="167.9" y="54.8" class="st1" width="17.6" height="17.5"/>
	<rect x="133.9" y="168.5" class="st1" width="17.6" height="17.5"/>
	<rect x="495.7" y="166.9" class="st1" width="17.6" height="68.9"/>
	<path class="st1" d="M563.9,237.1c-5.6,0-10.6-1-15.1-2.9s-8.3-4.5-11.4-7.8c-3.1-3.3-5.5-7.1-7.2-11.4c-1.7-4.3-2.5-8.8-2.5-13.5
		c0-4.8,0.8-9.4,2.5-13.7c1.7-4.3,4.1-8.1,7.2-11.4c3.1-3.3,6.9-5.9,11.4-7.8c4.5-1.9,9.5-2.9,15.1-2.9c5.6,0,10.6,1,15,2.9
		c4.4,1.9,8.2,4.5,11.3,7.8c3.1,3.3,5.5,7.1,7.2,11.4c1.7,4.3,2.5,8.8,2.5,13.7c0,4.7-0.8,9.2-2.5,13.5c-1.7,4.3-4,8.1-7.1,11.4
		c-3.1,3.3-6.8,5.9-11.3,7.8C574.5,236.1,569.5,237.1,563.9,237.1z M545.9,201.5c0,3.1,0.5,5.8,1.4,8.3c0.9,2.5,2.2,4.7,3.8,6.5
		c1.6,1.8,3.5,3.3,5.7,4.3c2.2,1,4.6,1.5,7.1,1.5c2.5,0,4.9-0.5,7.1-1.5c2.2-1,4.1-2.4,5.7-4.3c1.6-1.8,2.9-4,3.8-6.6
		c0.9-2.5,1.4-5.3,1.4-8.4c0-3-0.5-5.7-1.4-8.3c-0.9-2.5-2.2-4.7-3.8-6.6c-1.6-1.8-3.5-3.3-5.7-4.3c-2.2-1-4.6-1.5-7.1-1.5
		c-2.5,0-4.9,0.5-7.1,1.6c-2.2,1.1-4.1,2.5-5.7,4.3c-1.6,1.8-2.9,4-3.8,6.6C546.3,195.7,545.9,198.5,545.9,201.5z"/>
</g>
<g>
	<path d="M-552.5,495.1c-11.6,0-21.8-2.9-30.3-8.7c-2.5-1.7-3.6-4.8-2.8-7.7l5.3-19.1c0.6-2.2,2.3-4,4.5-4.8
		c0.8-0.3,1.6-0.4,2.4-0.4c1.5,0,2.9,0.5,4.1,1.3c0.5,0.3,2,1.3,6.3,2.9c3,1.1,6.5,1.6,10.5,1.6c3.4,0,6.2-0.5,7.9-1.5
		c1.5-0.9,2.7-2.3,3.5-4.3c1.2-2.7,2-6.2,2.3-10.5c0.4-4.8,0.7-10.6,0.7-17.2v-61.5c0-3.9,3.2-7.1,7.1-7.1h23.5
		c3.9,0,7.1,3.2,7.1,7.1v61.5c0,9.4-0.5,18.2-1.5,26c-1.1,8.5-3.5,15.9-7,22c-3.8,6.5-9.4,11.6-16.5,15.2
		C-532.5,493.4-541.3,495.1-552.5,495.1z"/>
	<path d="M-454.9,494.9c-11.4,0-20.3-3.9-26.5-11.5c-5.8-7.2-8.7-17.5-8.7-30.7v-55.9c0-3.9,3.2-7.1,7.1-7.1h22.8
		c3.9,0,7.1,3.2,7.1,7.1v50.9c0,13.5,5,13.5,7.7,13.5c3.1,0,6-0.9,9-2.9c2.7-1.7,5-4.4,6.9-7.9v-53.7c0-3.9,3.2-7.1,7.1-7.1h22.8
		c3.9,0,7.1,3.2,7.1,7.1v63c3.1,0.7,5.5,3.6,5.5,6.9v19.4c0,3.4-2.4,6.3-5.7,7c-2.6,0.5-4.7,0.8-6.6,1c-1.8,0.1-3.3,0.2-4.7,0.2
		c-5.6,0-10.4-1.4-14.2-4.2c-2.1-1.5-3.8-3.4-5-5.5c-2.5,2-5.2,3.7-8,5.1C-438.4,493.1-446.4,494.9-454.9,494.9z"/>
	<path d="M-348.8,494.9c-5.2,0-10.1-0.9-14.6-2.6c-4.6-1.7-8.7-4.2-12-7.4c-3.4-3.2-6.1-7-8-11.2c-1.9-4.3-2.9-9.1-2.9-14.2
		c0-5.3,1.2-10.4,3.6-15c2.4-4.5,5.7-8.4,9.9-11.5c4-3,8.8-5.3,14.2-7c5.3-1.6,11.2-2.4,17.4-2.4c4.4,0,8.7,0.4,12.9,1.1
		c0.4,0.1,0.8,0.2,1.3,0.2c-0.5-1.6-1.2-3-2.3-4c-2-1.9-5.3-2.8-10-2.8c-3.9,0-7.8,0.7-11.5,2.1c-4,1.5-8.2,3.7-12.4,6.7
		c-1.2,0.8-2.6,1.3-4,1.3c-0.6,0-1.2-0.1-1.8-0.2c-2-0.5-3.7-1.9-4.6-3.8l-7-14.5c-1.5-3.2-0.5-7,2.5-9
		c12.6-8.4,26.4-12.6,41.1-12.6c14.6,0,26.2,3.8,34.6,11.2c8.6,7.7,13,18.7,13,32.6v27.7c3.1,0.7,5.5,3.6,5.5,6.9v19.4
		c0,3.4-2.4,6.3-5.7,6.9c-4.4,0.9-8.1,1.3-11.5,1.3c-6,0-10.9-1.5-14.5-4.5c-1.6-1.3-2.9-2.8-4-4.5c-2.4,1.8-5,3.4-7.8,4.7
		C-334.1,493.3-341.3,494.9-348.8,494.9z M-337.5,450.6c-4.4,0-7.9,0.9-10.4,2.7c-2.3,1.7-2.6,3.1-2.6,4.4c0,1.8,0.6,3,2,4.3
		c1.7,1.4,3.7,2.1,6.3,2.1c3,0,5.7-0.5,8.4-1.6c2.3-0.9,4.1-2.1,5.3-3.4c0.3-0.4,0.7-0.7,1.1-1c0.6-0.5,0.9-0.8,1-1v-4.9
		c-1-0.3-2.1-0.5-3.1-0.7C-332.4,450.9-335.1,450.6-337.5,450.6z"/>
	<path d="M-211.5,493.2c-3.9,0-7.1-3.2-7.1-7.1v-50.1c0-7.3-1.4-10.3-2.3-11.4c-0.8-1.1-2-2.1-4.7-2.1c-1.4,0-2.9,0.3-4.5,0.9
		c-1.7,0.7-3.4,1.6-4.9,2.8c-1.6,1.3-3.1,2.8-4.4,4.5c-1,1.4-1.8,2.8-2.3,4.3v51c0,3.9-3.2,7.1-7.1,7.1h-22.8
		c-3.9,0-7.1-3.2-7.1-7.1v-89.3c0-3.9,3.2-7.1,7.1-7.1h20.6c3.7,0,6.7,2.8,7,6.3c1.3-0.8,2.6-1.6,4-2.3c7.2-3.7,15.4-5.5,24.3-5.5
		c6.8,0,12.6,1.4,17.2,4c4.6,2.7,8.2,6.2,10.7,10.6c2.4,4,4,8.6,4.9,13.6c0.8,4.6,1.2,9.3,1.2,14v55.7c0,3.9-3.2,7.1-7.1,7.1H-211.5
		z"/>
	<path d="M-640.1,608.1c-3.9,0-7.1-3.2-7.1-7.1V465.4c0-3.9,3.2-7.1,7.1-7.1h23.5c3.9,0,7.1,3.2,7.1,7.1v135.7
		c0,3.9-3.2,7.1-7.1,7.1H-640.1z"/>
	<path d="M-553,646.1c-10.8,0-20.1-1.9-27.7-5.6c-7.6-3.7-14.1-8.9-19.5-15.6c-2.3-2.8-2.1-7,0.6-9.5l12.4-12.1c1.3-1.3,3.1-2,4.9-2
		c0.1,0,0.3,0,0.4,0c0.6,0,1.1,0.1,1.6,0.3c-3.7-2.4-7.1-5.4-10.1-8.8c-4.1-4.8-7.4-10.4-9.6-16.7c-2.2-6.2-3.3-12.8-3.3-19.7
		c0-7.3,1.2-14.2,3.5-20.5c2.3-6.3,5.6-12,9.8-16.8c4.3-4.9,9.5-8.9,15.5-11.7c6-2.8,12.7-4.2,19.9-4.2c8.2,0,15.5,1.9,21.9,5.7
		c0.8,0.5,1.6,1,2.4,1.5c0.7-3.2,3.5-5.7,6.9-5.7h19.9c3.9,0,7.1,3.2,7.1,7.1v85c0,7.6-1.5,14.6-4.4,20.8c-2.9,6.1-7,11.4-12.2,15.7
		c-5.1,4.2-11.1,7.4-18.1,9.7C-537.8,645-545.2,646.1-553,646.1z M-577.4,603.3c0.2,0.2,0.4,0.4,0.5,0.6c2.7,3.4,6.1,6,10.3,7.9
		c4.3,2,8.7,2.9,13.5,2.9c2.8,0,5.5-0.4,8.1-1.2c2.3-0.7,4.4-1.8,6.1-3.2c1.6-1.3,2.9-3.1,3.9-5.2c0.3-0.7,0.6-1.4,0.8-2.2
		c-0.4,0.3-0.9,0.5-1.3,0.7c-6.3,3.3-13.2,5-20.5,5c-7.1,0-13.6-1.4-19.5-4.3C-576.1,604-576.7,603.7-577.4,603.3z M-549.6,536.8
		c-2.3,0-4.4,0.5-6.2,1.4c-2,1.1-3.7,2.5-5.2,4.3c-1.5,1.9-2.7,4.1-3.5,6.6c-0.8,2.6-1.3,5.3-1.3,8c0,2.8,0.5,5.3,1.4,7.6
		c0.9,2.4,2.2,4.4,3.8,6.1c1.6,1.7,3.4,3,5.5,4c2,0.9,4.2,1.4,6.7,1.4c1.7,0,3.3-0.3,4.8-0.8c1.6-0.6,3.2-1.4,4.6-2.3
		c1.4-1,2.6-2.1,3.7-3.4c0.7-0.9,1.3-1.8,1.8-2.8v-18.4c-1.5-3.4-3.8-6.1-6.7-8.3C-543.2,537.9-546.4,536.8-549.6,536.8z"/>
	<path d="M-419,608.1c-3.9,0-7.1-3.2-7.1-7.1V551c0-7.3-1.4-10.3-2.3-11.4c-0.8-1.1-2-2.1-4.7-2.1c-1.4,0-2.9,0.3-4.5,0.9
		c-1.7,0.7-3.3,1.6-4.9,2.8c-1.6,1.3-3.1,2.8-4.4,4.5c-1,1.4-1.8,2.8-2.3,4.3v51c0,3.9-3.2,7.1-7.1,7.1h-22.8
		c-3.9,0-7.1-3.2-7.1-7.1v-89.3c0-3.9,3.2-7.1,7.1-7.1h20.6c3.7,0,6.7,2.8,7,6.3c1.3-0.8,2.6-1.6,4-2.3c7.2-3.7,15.4-5.5,24.3-5.5
		c6.8,0,12.6,1.4,17.2,4c4.6,2.7,8.2,6.2,10.7,10.5c2.3,4,4,8.6,4.9,13.6c0.8,4.6,1.2,9.3,1.2,14v55.7c0,3.9-3.2,7.1-7.1,7.1H-419z"
		/>
	<path d="M-348.1,609.8c-5.2,0-10.1-0.9-14.6-2.6c-4.6-1.7-8.7-4.2-12-7.4c-3.4-3.2-6.1-7-8-11.2c-1.9-4.3-2.9-9.1-2.9-14.2
		c0-5.3,1.2-10.4,3.6-15c2.4-4.5,5.7-8.4,9.9-11.5c4-3,8.8-5.3,14.2-7c5.3-1.6,11.2-2.4,17.4-2.4c4.4,0,8.7,0.4,12.9,1.1
		c0.4,0.1,0.8,0.2,1.3,0.2c-0.5-1.6-1.2-3-2.3-4c-2-1.9-5.3-2.8-10-2.8c-3.9,0-7.8,0.7-11.5,2.1c-4,1.5-8.2,3.7-12.4,6.7
		c-1.2,0.8-2.6,1.3-4,1.3c-0.6,0-1.2-0.1-1.8-0.2c-2-0.5-3.7-1.9-4.6-3.8l-7-14.5c-1.5-3.2-0.5-7,2.5-9
		c12.6-8.4,26.4-12.6,41.1-12.6c14.6,0,26.2,3.8,34.6,11.2c8.6,7.7,13,18.7,13,32.6v27.7c3.1,0.7,5.5,3.6,5.5,6.9v19.4
		c0,3.4-2.4,6.3-5.7,6.9c-4.4,0.9-8.1,1.3-11.5,1.3c-6,0-10.9-1.5-14.5-4.5c-1.6-1.3-2.9-2.8-4-4.5c-2.4,1.8-5,3.4-7.8,4.7
		C-333.4,608.2-340.6,609.8-348.1,609.8z M-336.9,565.5c-4.4,0-7.9,0.9-10.4,2.7c-2.3,1.7-2.6,3.1-2.6,4.4c0,1.8,0.6,3.1,2,4.3
		c1.7,1.4,3.7,2.1,6.3,2.1c3,0,5.7-0.5,8.4-1.6c2.3-0.9,4.1-2.1,5.3-3.4c0.3-0.4,0.7-0.7,1.1-1c0.6-0.5,0.9-0.8,1-1v-4.9
		c-1-0.3-2.1-0.5-3.1-0.7C-331.7,565.8-334.4,565.5-336.9,565.5z"/>
	<path d="M-229.4,609.8c-8.2,0-15.7-1.5-22.4-4.3c-6.6-2.9-12.4-6.8-17.1-11.7c-4.7-4.9-8.4-10.7-10.9-17.1
		c-2.5-6.4-3.8-13.2-3.8-20.2c0-7.1,1.3-13.9,3.7-20.3c2.5-6.4,6.2-12.2,10.9-17c4.7-4.9,10.5-8.8,17.1-11.6
		c6.7-2.9,14.2-4.3,22.4-4.3c11,0,20.7,2.5,28.7,7.3c8,4.9,14.1,11.4,18.1,19.4c0.9,1.9,1,4,0.2,6c-0.8,1.9-2.4,3.4-4.4,4l-22.3,6.8
		c-0.7,0.2-1.4,0.3-2.1,0.3c-2.5,0-4.8-1.3-6.1-3.5c-1.3-2.2-2.9-3.8-5-5c-2.1-1.2-4.5-1.8-7.1-1.8c-2.3,0-4.3,0.4-6.2,1.3
		c-2,0.9-3.6,2.1-5.1,3.8c-1.5,1.6-2.7,3.7-3.5,6.1c-0.9,2.5-1.4,5.4-1.4,8.5c0,3.1,0.5,5.9,1.4,8.4c0.9,2.5,2.2,4.6,3.7,6.3
		c1.5,1.7,3.1,2.9,5.1,3.8c1.9,0.9,3.9,1.3,6.1,1.3c2.8,0,5.4-0.7,7.7-2.1c2.2-1.3,3.7-2.7,4.4-4.4c1.2-2.6,3.7-4.1,6.4-4.1
		c0.7,0,1.4,0.1,2.1,0.3l22.3,6.8c1.9,0.6,3.5,2,4.4,3.9c0.8,1.9,0.8,4,0,5.8c-3.6,8.1-9.7,14.8-17.9,19.8
		C-208.4,607.3-218.2,609.8-229.4,609.8z"/>
	<path d="M-171.1,495.1c-3.9,0-7.1-3.2-7.1-7.1v-22.7c0-3.9,3.2-7.1,7.1-7.1h22.8c3.9,0,7.1,3.2,7.1,7.1V488c0,3.9-3.2,7.1-7.1,7.1
		H-171.1z"/>
	<path d="M-171.1,608.1c-3.9,0-7.1-3.2-7.1-7.1v-89.3c0-3.9,3.2-7.1,7.1-7.1h22.8c3.9,0,7.1,3.2,7.1,7.1v89.3c0,3.9-3.2,7.1-7.1,7.1
		H-171.1z"/>
	<path d="M-82.7,609.8c-8.2,0-15.7-1.5-22.4-4.3c-6.7-2.9-12.4-6.8-17.1-11.8c-4.6-4.9-8.3-10.6-10.7-17c-2.5-6.4-3.7-13.1-3.7-20.1
		c0-7.1,1.3-13.9,3.7-20.3c2.5-6.4,6.1-12.1,10.7-17c4.7-4.9,10.4-8.9,17.1-11.8c6.7-2.9,14.2-4.3,22.4-4.3c8.2,0,15.7,1.5,22.3,4.3
		c6.6,2.9,12.3,6.8,17,11.8c4.6,4.9,8.3,10.6,10.7,17c2.5,6.4,3.7,13.2,3.7,20.3c0,7-1.3,13.7-3.7,20.1c-2.5,6.4-6.1,12.1-10.6,17
		c-4.6,5-10.4,8.9-17,11.8C-66.9,608.4-74.5,609.8-82.7,609.8z M-82.7,536.8c-2.2,0-4.2,0.4-6.1,1.3c-2,1-3.7,2.2-5.2,3.9
		c-1.5,1.7-2.7,3.8-3.6,6.2c-0.9,2.5-1.4,5.3-1.4,8.3c0,3.1,0.5,5.9,1.4,8.4c0.9,2.4,2.1,4.5,3.6,6.2c1.5,1.7,3.1,2.9,5.1,3.8
		c1.9,0.9,4,1.3,6.2,1.3s4.3-0.4,6.2-1.3c1.9-0.9,3.6-2.1,5.1-3.8c1.5-1.7,2.7-3.8,3.6-6.2c0.9-2.5,1.4-5.4,1.4-8.5
		c0-3-0.5-5.8-1.4-8.3c-0.9-2.4-2.1-4.5-3.6-6.2c-1.5-1.6-3.1-2.9-5.1-3.8C-78.4,537.2-80.4,536.8-82.7,536.8z"/>
</g>
<g>
	<path class="st2" d="M883.5,315.4c1.6,1.1,4.3,2.4,8,3.7c3.7,1.4,8.1,2,12.9,2c4.8,0,8.6-0.8,11.4-2.5c2.8-1.6,5-4.2,6.5-7.6
		c1.5-3.4,2.4-7.6,2.9-12.7c0.5-5.1,0.7-11,0.7-17.8v-61.5h23.5v61.5c0,9.2-0.5,17.6-1.4,25.1c-1,7.6-3,14-6.1,19.3
		c-3.1,5.3-7.6,9.5-13.5,12.4c-5.9,3-13.9,4.4-23.9,4.4c-10.2,0-19-2.5-26.2-7.5L883.5,315.4z"/>
	<path class="st2" d="M1002.1,341.8c-9.2,0-16.2-3-21-8.9c-4.8-5.9-7.2-14.7-7.2-26.2v-55.9h22.8v50.9c0,13.7,4.9,20.6,14.8,20.6
		c4.4,0,8.7-1.3,12.9-4c4.1-2.7,7.5-6.7,10.1-12.2v-55.4h22.8v63c0,2.4,0.4,4.1,1.3,5.1c0.9,1,2.2,1.6,4.2,1.7v19.4
		c-2.3,0.5-4.2,0.7-5.7,0.9c-1.5,0.1-2.9,0.2-4.2,0.2c-4.1,0-7.4-0.9-10-2.8c-2.6-1.9-4.1-4.5-4.5-7.8l-0.5-7.2
		c-4,6.1-9.1,10.7-15.3,13.8C1016.5,340.3,1009.6,341.8,1002.1,341.8z"/>
	<path class="st2" d="M1108.2,341.8c-4.3,0-8.3-0.7-12.1-2.1c-3.7-1.4-7-3.4-9.7-6c-2.7-2.6-4.9-5.5-6.4-8.9
		c-1.5-3.4-2.3-7.2-2.3-11.2c0-4.2,0.9-8.1,2.8-11.7c1.9-3.6,4.5-6.6,7.8-9.1c3.3-2.5,7.4-4.5,12-5.9c4.7-1.4,9.8-2.1,15.3-2.1
		c4,0,7.9,0.3,11.7,1c3.8,0.7,7.2,1.6,10.1,2.9v-5.1c0-5.9-1.7-10.4-5-13.6c-3.4-3.2-8.3-4.8-14.9-4.8c-4.8,0-9.4,0.9-14,2.6
		c-4.5,1.7-9.2,4.2-14,7.5l-7-14.5c11.5-7.6,23.9-11.4,37.1-11.4c12.8,0,22.8,3.2,29.9,9.5c7.1,6.3,10.6,15.4,10.6,27.3v27.8
		c0,2.4,0.4,4.1,1.3,5.1c0.9,1,2.2,1.6,4.2,1.7v19.4c-3.9,0.8-7.2,1.2-10.1,1.2c-4.3,0-7.6-1-10-2.9c-2.3-1.9-3.8-4.5-4.3-7.7
		l-0.5-4.9c-4,5.2-8.8,9.2-14.5,11.9C1120.8,340.5,1114.7,341.8,1108.2,341.8z M1114.7,325.1c3.9,0,7.5-0.7,11-2
		c3.5-1.4,6.2-3.2,8.1-5.5c2.5-1.9,3.7-4.1,3.7-6.5v-10.2c-2.7-1-5.7-1.8-8.9-2.5c-3.2-0.6-6.2-0.9-9.2-0.9c-5.9,0-10.7,1.3-14.5,4
		c-3.7,2.7-5.6,6-5.6,10.1c0,3.9,1.5,7.1,4.4,9.6C1106.8,323.8,1110.4,325.1,1114.7,325.1z"/>
	<path class="st2" d="M1268.4,340.1h-22.8V290c0-7.2-1.3-12.4-3.7-15.7c-2.5-3.3-6-4.9-10.4-4.9c-2.3,0-4.6,0.5-7,1.4
		c-2.4,0.9-4.6,2.2-6.7,3.8c-2.1,1.6-4,3.6-5.7,5.9c-1.7,2.3-3,4.8-3.7,7.5v52.1h-22.8v-89.3h20.6v16.5c3.3-5.7,8.1-10.1,14.3-13.3
		c6.2-3.2,13.3-4.8,21.1-4.8c5.6,0,10.1,1,13.6,3.1c3.5,2,6.2,4.7,8.2,8c1.9,3.3,3.3,7,4,11.2c0.7,4.2,1.1,8.5,1.1,12.8V340.1z"/>
	<path class="st2" d="M816.9,455V319.3h23.5V455H816.9z"/>
	<path class="st2" d="M901.1,455.5c-6,0-11.5-1.2-16.4-3.6c-4.9-2.4-9.1-5.6-12.7-9.8c-3.6-4.1-6.3-8.9-8.3-14.4
		c-1.9-5.5-2.9-11.2-2.9-17.4c0-6.5,1-12.5,3.1-18.1c2-5.6,4.9-10.4,8.5-14.7c3.6-4.2,8-7.5,13.1-9.9c5.1-2.4,10.7-3.6,16.9-3.6
		c6.9,0,13,1.6,18.2,4.7c5.2,3.1,9.5,7.3,12.9,12.5v-15.7h19.9v85c0,6.6-1.2,12.5-3.7,17.7c-2.5,5.2-5.9,9.7-10.3,13.3
		c-4.4,3.6-9.6,6.4-15.7,8.3c-6.1,1.9-12.7,2.9-19.8,2.9c-9.8,0-18-1.6-24.6-4.9c-6.6-3.2-12.4-7.8-17.1-13.7l12.4-12.1
		c3.4,4.2,7.7,7.5,12.9,9.9c5.2,2.4,10.6,3.6,16.4,3.6c3.5,0,6.9-0.5,10.1-1.4c3.2-1,6.1-2.5,8.6-4.5c2.5-2,4.5-4.7,5.9-7.8
		c1.4-3.2,2.1-6.9,2.1-11.2v-11.2c-3,5.1-7.1,9.1-12.4,11.8C912.9,454.1,907.2,455.5,901.1,455.5z M908.7,437.3
		c2.5,0,4.9-0.4,7.2-1.2c2.3-0.8,4.4-1.9,6.3-3.2c1.9-1.4,3.6-3,5.1-4.8c1.5-1.8,2.6-3.7,3.4-5.8V401c-2-5.2-5.3-9.4-9.6-12.6
		c-4.4-3.2-8.9-4.8-13.7-4.8c-3.5,0-6.7,0.8-9.5,2.3c-2.8,1.5-5.3,3.6-7.3,6.1c-2,2.6-3.6,5.5-4.7,8.8c-1.1,3.3-1.6,6.7-1.6,10.2
		c0,3.6,0.6,7,1.9,10.2c1.2,3.2,3,6,5.2,8.3c2.2,2.4,4.8,4.3,7.8,5.6C902,436.6,905.2,437.3,908.7,437.3z"/>
	<path class="st2" d="M1060.9,455H1038v-50.1c0-7.2-1.3-12.4-3.7-15.7c-2.5-3.3-6-4.9-10.4-4.9c-2.3,0-4.6,0.5-7,1.4
		c-2.4,0.9-4.6,2.2-6.7,3.8c-2.1,1.6-4,3.6-5.7,5.9c-1.7,2.3-3,4.8-3.7,7.5V455h-22.8v-89.3h20.6v16.5c3.3-5.7,8.1-10.1,14.3-13.3
		c6.2-3.2,13.3-4.8,21.1-4.8c5.6,0,10.1,1,13.6,3.1c3.5,2,6.2,4.7,8.2,8c1.9,3.3,3.3,7,4,11.2c0.7,4.2,1.1,8.5,1.1,12.8V455z"/>
	<path class="st2" d="M1108.9,456.7c-4.3,0-8.3-0.7-12.1-2.1c-3.7-1.4-7-3.4-9.7-6c-2.7-2.6-4.9-5.5-6.4-8.9
		c-1.5-3.4-2.3-7.2-2.3-11.2c0-4.2,0.9-8.1,2.8-11.7c1.9-3.6,4.5-6.6,7.8-9.1c3.3-2.5,7.4-4.5,12-5.9c4.7-1.4,9.8-2.1,15.3-2.1
		c4,0,7.9,0.3,11.7,1c3.8,0.7,7.2,1.6,10.1,2.9v-5.1c0-5.9-1.7-10.4-5-13.6c-3.4-3.2-8.3-4.8-14.9-4.8c-4.8,0-9.4,0.9-14,2.6
		c-4.5,1.7-9.2,4.2-14,7.5l-7-14.5c11.5-7.6,23.9-11.4,37.1-11.4c12.8,0,22.8,3.2,29.9,9.5c7.1,6.3,10.6,15.4,10.6,27.3v27.8
		c0,2.4,0.4,4.1,1.3,5.1c0.9,1,2.2,1.6,4.2,1.7V455c-3.9,0.8-7.2,1.2-10.1,1.2c-4.3,0-7.6-1-10-2.9c-2.3-1.9-3.8-4.5-4.3-7.7
		l-0.5-4.9c-4,5.2-8.8,9.2-14.5,11.9C1121.5,455.4,1115.4,456.7,1108.9,456.7z M1115.4,440c3.9,0,7.5-0.7,11-2
		c3.5-1.4,6.2-3.2,8.1-5.5c2.5-1.9,3.7-4.1,3.7-6.5v-10.2c-2.7-1-5.7-1.8-8.9-2.5c-3.2-0.6-6.2-0.9-9.2-0.9c-5.9,0-10.7,1.3-14.5,4
		c-3.7,2.7-5.6,6-5.6,10.1c0,3.9,1.5,7.1,4.4,9.6C1107.4,438.8,1111.1,440,1115.4,440z"/>
	<path class="st2" d="M1180.5,410.4c0-6.2,1.1-12.2,3.2-17.7c2.2-5.6,5.3-10.4,9.4-14.7c4.1-4.2,9-7.6,14.8-10.1
		c5.8-2.5,12.3-3.7,19.6-3.7c9.8,0,18.1,2.1,25,6.3c6.9,4.2,12,9.7,15.4,16.5l-22.3,6.8c-1.9-3.3-4.5-5.8-7.7-7.6
		c-3.2-1.8-6.7-2.6-10.6-2.6c-3.3,0-6.4,0.7-9.2,2c-2.8,1.3-5.3,3.1-7.4,5.5c-2.1,2.3-3.7,5.1-4.9,8.4c-1.2,3.3-1.8,6.9-1.8,10.9
		c0,4,0.6,7.6,1.9,10.9c1.2,3.3,2.9,6.1,5,8.5c2.1,2.4,4.6,4.2,7.4,5.5c2.8,1.3,5.8,2,9,2c4.1,0,7.9-1,11.3-3.1
		c3.5-2,5.9-4.5,7.2-7.5l22.3,6.8c-3.1,6.8-8.1,12.4-15.2,16.7c-7,4.3-15.5,6.5-25.4,6.5c-7.3,0-13.8-1.3-19.6-3.7
		c-5.8-2.5-10.7-5.9-14.8-10.1c-4.1-4.3-7.2-9.2-9.5-14.8S1180.5,416.5,1180.5,410.4z"/>
	<rect x="1285.9" y="319.3" class="st2" width="22.8" height="22.7"/>
	<rect x="1285.9" y="365.8" class="st2" width="22.8" height="89.3"/>
	<path class="st2" d="M1374.3,456.7c-7.3,0-13.8-1.3-19.6-3.7s-10.7-5.9-14.7-10.1c-4-4.3-7.1-9.2-9.3-14.7
		c-2.2-5.6-3.2-11.4-3.2-17.5c0-6.2,1.1-12.2,3.2-17.7c2.2-5.6,5.3-10.5,9.3-14.7c4-4.3,8.9-7.6,14.7-10.1
		c5.8-2.5,12.3-3.7,19.6-3.7c7.3,0,13.8,1.3,19.5,3.7c5.7,2.5,10.6,5.9,14.7,10.1c4,4.3,7.1,9.2,9.3,14.7c2.2,5.6,3.2,11.5,3.2,17.7
		c0,6.1-1.1,12-3.2,17.5c-2.2,5.6-5.2,10.5-9.2,14.7c-4,4.3-8.9,7.6-14.7,10.1C1388.1,455.5,1381.6,456.7,1374.3,456.7z M1351,410.6
		c0,4,0.6,7.6,1.8,10.8c1.2,3.2,2.8,6,4.9,8.4c2.1,2.4,4.6,4.2,7.4,5.5c2.8,1.3,5.9,2,9.2,2c3.3,0,6.4-0.7,9.2-2
		c2.8-1.3,5.3-3.2,7.4-5.5c2.1-2.4,3.7-5.2,4.9-8.5c1.2-3.3,1.8-6.9,1.8-10.9c0-3.9-0.6-7.4-1.8-10.7c-1.2-3.3-2.8-6.1-4.9-8.5
		c-2.1-2.4-4.6-4.2-7.4-5.5c-2.8-1.3-5.9-2-9.2-2c-3.3,0-6.4,0.7-9.2,2c-2.8,1.4-5.3,3.2-7.4,5.6c-2.1,2.4-3.7,5.2-4.9,8.5
		C1351.6,403.1,1351,406.7,1351,410.6z"/>
</g>
<g>
	<path d="M-584-73.1c0.9,0.6,2.3,1.3,4.3,2c2,0.7,4.4,1.1,7,1.1c2.6,0,4.6-0.4,6.2-1.3c1.5-0.9,2.7-2.3,3.5-4.1
		c0.8-1.8,1.3-4.1,1.6-6.9c0.2-2.7,0.4-5.9,0.4-9.6v-33.2h12.7v33.2c0,5-0.3,9.5-0.8,13.6c-0.5,4.1-1.6,7.6-3.3,10.4
		c-1.7,2.9-4.1,5.1-7.3,6.7c-3.2,1.6-7.5,2.4-12.9,2.4c-5.5,0-10.2-1.3-14.2-4L-584-73.1z"/>
	<path d="M-519.9-58.9c-5,0-8.7-1.6-11.3-4.8c-2.6-3.2-3.9-7.9-3.9-14.2V-108h12.3v27.5c0,7.4,2.7,11.1,8,11.1
		c2.4,0,4.7-0.7,6.9-2.2c2.2-1.4,4.1-3.6,5.5-6.6V-108h12.3v34c0,1.3,0.2,2.2,0.7,2.8c0.5,0.6,1.2,0.9,2.3,0.9v10.5
		c-1.2,0.2-2.3,0.4-3.1,0.5c-0.8,0.1-1.6,0.1-2.3,0.1c-2.2,0-4-0.5-5.4-1.5c-1.4-1-2.2-2.4-2.4-4.2l-0.3-3.9
		c-2.1,3.3-4.9,5.8-8.3,7.5C-512.2-59.7-515.9-58.9-519.9-58.9z"/>
	<path d="M-462.6-58.9c-2.3,0-4.5-0.4-6.5-1.1s-3.8-1.8-5.2-3.2c-1.5-1.4-2.6-3-3.5-4.8c-0.8-1.8-1.2-3.9-1.2-6.1
		c0-2.3,0.5-4.4,1.5-6.3c1-1.9,2.4-3.6,4.2-4.9c1.8-1.3,4-2.4,6.5-3.2c2.5-0.8,5.3-1.1,8.3-1.1c2.1,0,4.2,0.2,6.3,0.6
		c2.1,0.4,3.9,0.9,5.5,1.6v-2.8c0-3.2-0.9-5.6-2.7-7.4c-1.8-1.7-4.5-2.6-8-2.6c-2.6,0-5.1,0.5-7.5,1.4c-2.5,0.9-5,2.3-7.5,4
		l-3.8-7.8c6.2-4.1,12.9-6.2,20.1-6.2c6.9,0,12.3,1.7,16.1,5.1c3.8,3.4,5.8,8.3,5.8,14.8v15c0,1.3,0.2,2.2,0.7,2.8
		c0.5,0.6,1.2,0.9,2.3,0.9v10.5c-2.1,0.4-3.9,0.6-5.4,0.6c-2.3,0-4.1-0.5-5.4-1.6c-1.3-1-2-2.4-2.3-4.1l-0.3-2.7
		c-2.1,2.8-4.8,5-7.8,6.4C-455.8-59.6-459.1-58.9-462.6-58.9z M-459.1-67.9c2.1,0,4.1-0.4,5.9-1.1c1.9-0.7,3.3-1.7,4.4-2.9
		c1.3-1,2-2.2,2-3.5v-5.5c-1.5-0.6-3.1-1-4.8-1.3c-1.7-0.3-3.4-0.5-5-0.5c-3.2,0-5.8,0.7-7.8,2.2c-2,1.4-3,3.3-3,5.5
		c0,2.1,0.8,3.8,2.4,5.2C-463.4-68.6-461.4-67.9-459.1-67.9z"/>
	<path d="M-376.1-59.8h-12.3v-27c0-3.9-0.7-6.7-2-8.5c-1.3-1.8-3.2-2.7-5.6-2.7c-1.2,0-2.5,0.2-3.8,0.7c-1.3,0.5-2.5,1.2-3.6,2.1
		c-1.1,0.9-2.2,1.9-3.1,3.2c-0.9,1.2-1.6,2.6-2,4v28.2h-12.3V-108h11.1v8.9c1.8-3.1,4.4-5.5,7.7-7.2c3.4-1.7,7.2-2.6,11.4-2.6
		c3,0,5.5,0.6,7.4,1.7c1.9,1.1,3.4,2.5,4.4,4.3c1,1.8,1.8,3.8,2.2,6.1c0.4,2.3,0.6,4.6,0.6,6.9V-59.8z"/>
	<path d="M-338-59.8v-65.3h12.7v65.3H-338z"/>
	<path d="M-292.6-59.5c-3.3,0-6.2-0.6-8.8-1.9c-2.6-1.3-4.9-3.1-6.9-5.3c-1.9-2.2-3.4-4.8-4.5-7.8c-1-2.9-1.6-6.1-1.6-9.4
		c0-3.5,0.6-6.7,1.7-9.8c1.1-3,2.6-5.6,4.6-7.9c2-2.3,4.3-4,7.1-5.3c2.8-1.3,5.8-1.9,9.1-1.9c3.7,0,7,0.8,9.8,2.5
		c2.8,1.7,5.2,3.9,7,6.8v-8.5h10.8v45.9c0,3.6-0.7,6.7-2,9.6c-1.3,2.8-3.2,5.2-5.6,7.2c-2.4,2-5.2,3.5-8.5,4.5
		c-3.3,1-6.9,1.6-10.7,1.6c-5.3,0-9.7-0.9-13.3-2.6c-3.6-1.7-6.7-4.2-9.2-7.4l6.7-6.5c1.8,2.3,4.2,4,6.9,5.3
		c2.8,1.3,5.7,1.9,8.9,1.9c1.9,0,3.7-0.3,5.5-0.8c1.7-0.5,3.3-1.3,4.6-2.4c1.3-1.1,2.4-2.5,3.2-4.2c0.8-1.7,1.2-3.7,1.2-6.1v-6.1
		c-1.6,2.8-3.8,4.9-6.7,6.4C-286.2-60.3-289.3-59.5-292.6-59.5z M-288.5-69.3c1.3,0,2.6-0.2,3.9-0.6c1.2-0.4,2.4-1,3.4-1.7
		c1-0.7,2-1.6,2.8-2.6c0.8-1,1.4-2,1.8-3.1v-11.5c-1.1-2.8-2.8-5.1-5.2-6.8c-2.4-1.7-4.8-2.6-7.4-2.6c-1.9,0-3.6,0.4-5.2,1.2
		c-1.5,0.8-2.9,1.9-4,3.3c-1.1,1.4-1.9,3-2.5,4.7c-0.6,1.8-0.9,3.6-0.9,5.5c0,2,0.3,3.8,1,5.5c0.7,1.7,1.6,3.2,2.8,4.5
		c1.2,1.3,2.6,2.3,4.2,3C-292.1-69.7-290.4-69.3-288.5-69.3z"/>
	<path d="M-206.3-59.8h-12.3v-27c0-3.9-0.7-6.7-2-8.5c-1.4-1.8-3.2-2.7-5.6-2.7c-1.2,0-2.5,0.2-3.8,0.7c-1.3,0.5-2.5,1.2-3.6,2.1
		c-1.1,0.9-2.2,1.9-3.1,3.2c-0.9,1.2-1.6,2.6-2,4v28.2h-12.3V-108h11.1v8.9c1.8-3.1,4.4-5.5,7.7-7.2c3.4-1.7,7.2-2.6,11.4-2.6
		c3,0,5.5,0.6,7.4,1.7c1.9,1.1,3.4,2.5,4.4,4.3c1,1.8,1.8,3.8,2.2,6.1c0.4,2.3,0.6,4.6,0.6,6.9V-59.8z"/>
	<path d="M-180.4-58.9c-2.3,0-4.5-0.4-6.5-1.1c-2-0.8-3.8-1.8-5.2-3.2c-1.5-1.4-2.6-3-3.5-4.8c-0.8-1.8-1.2-3.9-1.2-6.1
		c0-2.3,0.5-4.4,1.5-6.3c1-1.9,2.4-3.6,4.2-4.9c1.8-1.3,4-2.4,6.5-3.2c2.5-0.8,5.3-1.1,8.3-1.1c2.1,0,4.2,0.2,6.3,0.6
		c2.1,0.4,3.9,0.9,5.5,1.6v-2.8c0-3.2-0.9-5.6-2.7-7.4c-1.8-1.7-4.5-2.6-8-2.6c-2.6,0-5.1,0.5-7.5,1.4c-2.5,0.9-5,2.3-7.5,4
		l-3.8-7.8c6.2-4.1,12.9-6.2,20.1-6.2c6.9,0,12.3,1.7,16.1,5.1c3.8,3.4,5.8,8.3,5.8,14.8v15c0,1.3,0.2,2.2,0.7,2.8
		c0.5,0.6,1.2,0.9,2.3,0.9v10.5c-2.1,0.4-3.9,0.6-5.4,0.6c-2.3,0-4.1-0.5-5.4-1.6c-1.3-1-2-2.4-2.3-4.1l-0.3-2.7
		c-2.1,2.8-4.8,5-7.8,6.4C-173.6-59.6-176.9-58.9-180.4-58.9z M-176.9-67.9c2.1,0,4.1-0.4,5.9-1.1c1.9-0.7,3.3-1.7,4.4-2.9
		c1.3-1,2-2.2,2-3.5v-5.5c-1.5-0.6-3.1-1-4.8-1.3c-1.7-0.3-3.4-0.5-5-0.5c-3.2,0-5.8,0.7-7.8,2.2c-2,1.4-3,3.3-3,5.5
		c0,2.1,0.8,3.8,2.4,5.2C-181.2-68.6-179.2-67.9-176.9-67.9z"/>
	<path d="M-141.7-83.9c0-3.4,0.6-6.6,1.7-9.6c1.2-3,2.9-5.6,5.1-7.9c2.2-2.3,4.9-4.1,8-5.4c3.1-1.3,6.7-2,10.6-2
		c5.3,0,9.8,1.1,13.5,3.4c3.7,2.3,6.5,5.2,8.3,8.9l-12.1,3.7c-1-1.8-2.4-3.1-4.1-4.1c-1.7-1-3.6-1.4-5.7-1.4c-1.8,0-3.4,0.4-5,1.1
		c-1.5,0.7-2.9,1.7-4,2.9c-1.1,1.3-2,2.8-2.7,4.6c-0.6,1.8-1,3.7-1,5.9c0,2.1,0.3,4.1,1,5.9c0.7,1.8,1.6,3.3,2.7,4.6
		c1.1,1.3,2.5,2.3,4,3c1.5,0.7,3.2,1.1,4.9,1.1c2.2,0,4.2-0.6,6.1-1.7c1.9-1.1,3.2-2.5,3.9-4l12.1,3.7c-1.7,3.7-4.4,6.7-8.2,9
		c-3.8,2.3-8.4,3.5-13.7,3.5c-3.9,0-7.5-0.7-10.6-2c-3.1-1.3-5.8-3.2-8-5.5c-2.2-2.3-3.9-5-5.1-8S-141.7-80.6-141.7-83.9z"/>
	<path d="M-84.8-114.7v-12.2h12.3v12.2H-84.8z M-84.8-59.8V-108h12.3v48.2H-84.8z"/>
	<path d="M-37-58.9c-3.9,0-7.5-0.7-10.6-2s-5.8-3.2-8-5.5c-2.2-2.3-3.8-5-5-8c-1.2-3-1.7-6.2-1.7-9.5c0-3.4,0.6-6.6,1.7-9.6
		c1.2-3,2.8-5.7,5-8c2.2-2.3,4.8-4.1,8-5.5c3.1-1.3,6.7-2,10.6-2c3.9,0,7.4,0.7,10.5,2c3.1,1.4,5.7,3.2,7.9,5.5c2.2,2.3,3.8,5,5,8
		c1.2,3,1.7,6.2,1.7,9.6c0,3.3-0.6,6.5-1.7,9.5c-1.2,3-2.8,5.7-5,8c-2.1,2.3-4.8,4.1-7.9,5.5S-33.1-58.9-37-58.9z M-49.6-83.8
		c0,2.1,0.3,4.1,1,5.8c0.6,1.7,1.5,3.3,2.7,4.6c1.1,1.3,2.5,2.3,4,3c1.5,0.7,3.2,1.1,5,1.1c1.8,0,3.4-0.4,5-1.1c1.5-0.7,2.9-1.7,4-3
		c1.1-1.3,2-2.8,2.7-4.6c0.6-1.8,1-3.7,1-5.9c0-2.1-0.3-4-1-5.8c-0.6-1.8-1.5-3.3-2.7-4.6c-1.1-1.3-2.5-2.3-4-3
		c-1.5-0.7-3.2-1.1-5-1.1c-1.8,0-3.4,0.4-5,1.1c-1.5,0.7-2.9,1.7-4,3c-1.1,1.3-2,2.8-2.7,4.6C-49.3-87.8-49.6-85.9-49.6-83.8z"/>
</g>
<g>
	<path class="st3" d="M-605.9,220c-11.6,0-21.8-2.9-30.3-8.7c-2.5-1.7-3.6-4.8-2.8-7.7l5.3-19.1c0.6-2.2,2.3-4,4.5-4.8
		c0.8-0.3,1.6-0.4,2.4-0.4c1.5,0,2.9,0.5,4.1,1.3c0.5,0.3,2,1.3,6.3,2.9c3,1.1,6.5,1.6,10.5,1.6c3.4,0,6.2-0.5,7.9-1.5
		c1.5-0.9,2.7-2.3,3.5-4.3c1.2-2.7,2-6.2,2.3-10.5c0.4-4.8,0.7-10.6,0.7-17.2V90.1c0-3.9,3.2-7.1,7.1-7.1h23.5
		c3.9,0,7.1,3.2,7.1,7.1v61.5c0,9.4-0.5,18.2-1.5,26c-1.1,8.5-3.5,15.9-7,22c-3.8,6.5-9.4,11.6-16.5,15.2
		C-585.9,218.3-594.7,220-605.9,220z"/>
	<path class="st3" d="M-508.3,219.8c-11.4,0-20.3-3.9-26.5-11.5c-5.8-7.2-8.7-17.5-8.7-30.7v-55.9c0-3.9,3.2-7.1,7.1-7.1h22.8
		c3.9,0,7.1,3.2,7.1,7.1v50.9c0,13.5,5,13.5,7.7,13.5c3.1,0,6-0.9,9-2.9c2.7-1.7,5-4.4,6.9-7.9v-53.7c0-3.9,3.2-7.1,7.1-7.1h22.8
		c3.9,0,7.1,3.2,7.1,7.1v63c3.1,0.7,5.5,3.6,5.5,6.9V211c0,3.4-2.4,6.3-5.7,7c-2.6,0.5-4.7,0.8-6.6,1c-1.8,0.1-3.3,0.2-4.7,0.2
		c-5.6,0-10.4-1.4-14.2-4.2c-2.1-1.5-3.8-3.4-5-5.5c-2.5,2-5.2,3.7-8,5.1C-491.8,218-499.7,219.8-508.3,219.8z"/>
	<path class="st3" d="M-402.2,219.8c-5.2,0-10.1-0.9-14.6-2.6c-4.6-1.7-8.7-4.2-12-7.4c-3.4-3.2-6.1-7-8-11.2
		c-1.9-4.3-2.9-9.1-2.9-14.2c0-5.3,1.2-10.4,3.6-15c2.4-4.5,5.7-8.4,9.9-11.5c4-3,8.8-5.3,14.2-7c5.3-1.6,11.2-2.4,17.4-2.4
		c4.4,0,8.7,0.4,12.9,1.1c0.4,0.1,0.8,0.2,1.3,0.2c-0.5-1.6-1.2-3-2.3-4c-2-1.9-5.3-2.8-10-2.8c-3.9,0-7.8,0.7-11.5,2.1
		c-4,1.5-8.2,3.7-12.4,6.7c-1.2,0.8-2.6,1.3-4,1.3c-0.6,0-1.2-0.1-1.8-0.2c-2-0.5-3.7-1.9-4.6-3.8l-7-14.5c-1.5-3.2-0.5-7,2.5-9
		c12.6-8.4,26.4-12.6,41.1-12.6c14.6,0,26.2,3.8,34.6,11.2c8.6,7.7,13,18.7,13,32.6v27.7c3.1,0.7,5.5,3.6,5.5,6.9V211
		c0,3.4-2.4,6.3-5.7,6.9c-4.4,0.9-8.1,1.3-11.5,1.3c-6,0-10.9-1.5-14.5-4.5c-1.6-1.3-2.9-2.8-4-4.5c-2.4,1.8-5,3.4-7.8,4.7
		C-387.5,218.2-394.7,219.8-402.2,219.8z M-390.9,175.5c-4.4,0-7.9,0.9-10.4,2.7c-2.3,1.7-2.6,3.1-2.6,4.4c0,1.8,0.6,3,2,4.3
		c1.7,1.4,3.7,2.1,6.3,2.1c3,0,5.7-0.5,8.4-1.6c2.3-0.9,4.1-2.1,5.3-3.4c0.3-0.4,0.7-0.7,1.1-1c0.6-0.5,0.9-0.8,1-1V177
		c-1-0.3-2.1-0.5-3.1-0.7C-385.8,175.8-388.4,175.5-390.9,175.5z"/>
	<path class="st3" d="M-264.9,218.1c-3.9,0-7.1-3.2-7.1-7.1v-50.1c0-7.3-1.4-10.3-2.3-11.4c-0.8-1.1-2-2.1-4.7-2.1
		c-1.4,0-2.9,0.3-4.5,0.9c-1.7,0.7-3.4,1.6-4.9,2.8c-1.6,1.3-3.1,2.8-4.4,4.5c-1,1.4-1.8,2.8-2.3,4.3v51c0,3.9-3.2,7.1-7.1,7.1H-325
		c-3.9,0-7.1-3.2-7.1-7.1v-89.3c0-3.9,3.2-7.1,7.1-7.1h20.6c3.7,0,6.7,2.8,7,6.3c1.3-0.8,2.6-1.6,4-2.3c7.2-3.7,15.4-5.5,24.3-5.5
		c6.8,0,12.6,1.4,17.2,4c4.6,2.7,8.2,6.2,10.7,10.6c2.4,4,4,8.6,4.9,13.6c0.8,4.6,1.2,9.3,1.2,14V211c0,3.9-3.2,7.1-7.1,7.1H-264.9z
		"/>
	<path class="st3" d="M-693.5,333c-3.9,0-7.1-3.2-7.1-7.1V190.2c0-3.9,3.2-7.1,7.1-7.1h23.5c3.9,0,7.1,3.2,7.1,7.1v135.7
		c0,3.9-3.2,7.1-7.1,7.1H-693.5z"/>
	<path class="st3" d="M-606.4,371c-10.8,0-20.1-1.9-27.7-5.6c-7.6-3.7-14.1-8.9-19.5-15.6c-2.3-2.8-2.1-7,0.6-9.5l12.4-12.1
		c1.3-1.3,3.1-2,4.9-2c0.1,0,0.3,0,0.4,0c0.6,0,1.1,0.1,1.6,0.3c-3.7-2.4-7.1-5.4-10.1-8.8c-4.1-4.8-7.4-10.4-9.6-16.7
		c-2.2-6.2-3.3-12.8-3.3-19.7c0-7.3,1.2-14.2,3.5-20.5c2.3-6.3,5.6-12,9.8-16.8c4.3-4.9,9.5-8.9,15.5-11.7c6-2.8,12.7-4.2,19.9-4.2
		c8.2,0,15.5,1.9,21.9,5.7c0.8,0.5,1.6,1,2.4,1.5c0.7-3.2,3.5-5.7,6.9-5.7h19.9c3.9,0,7.1,3.2,7.1,7.1v85c0,7.6-1.5,14.6-4.4,20.8
		c-2.9,6.1-7,11.4-12.2,15.7c-5.1,4.2-11.1,7.4-18.1,9.7C-591.2,369.9-598.6,371-606.4,371z M-630.7,328.2c0.2,0.2,0.4,0.4,0.5,0.6
		c2.7,3.4,6.1,6,10.3,7.9c4.3,2,8.7,2.9,13.5,2.9c2.8,0,5.5-0.4,8.1-1.2c2.3-0.7,4.4-1.8,6.1-3.2c1.6-1.3,2.9-3.1,3.9-5.2
		c0.3-0.7,0.6-1.4,0.8-2.2c-0.4,0.3-0.9,0.5-1.3,0.7c-6.3,3.3-13.2,5-20.5,5c-7.1,0-13.6-1.4-19.5-4.3
		C-629.5,328.9-630.1,328.6-630.7,328.2z M-603,261.6c-2.3,0-4.4,0.5-6.2,1.4c-2,1.1-3.7,2.5-5.2,4.3c-1.5,1.9-2.7,4.1-3.5,6.6
		c-0.8,2.6-1.3,5.3-1.3,8c0,2.8,0.5,5.3,1.4,7.6c0.9,2.4,2.2,4.4,3.8,6.1c1.6,1.7,3.4,3,5.5,4c2,0.9,4.2,1.4,6.7,1.4
		c1.7,0,3.3-0.3,4.8-0.8c1.6-0.6,3.2-1.4,4.6-2.3c1.4-1,2.6-2.1,3.7-3.4c0.7-0.9,1.3-1.8,1.8-2.8v-18.4c-1.5-3.4-3.8-6.1-6.7-8.3
		C-596.6,262.8-599.8,261.6-603,261.6z"/>
	<path class="st3" d="M-472.4,333c-3.9,0-7.1-3.2-7.1-7.1v-50.1c0-7.3-1.4-10.3-2.3-11.4c-0.8-1.1-2-2.1-4.7-2.1
		c-1.4,0-2.9,0.3-4.5,0.9c-1.7,0.7-3.3,1.6-4.9,2.8c-1.6,1.3-3.1,2.8-4.4,4.5c-1,1.4-1.8,2.8-2.3,4.3v51c0,3.9-3.2,7.1-7.1,7.1
		h-22.8c-3.9,0-7.1-3.2-7.1-7.1v-89.3c0-3.9,3.2-7.1,7.1-7.1h20.6c3.7,0,6.7,2.8,7,6.3c1.3-0.8,2.6-1.6,4-2.3
		c7.2-3.7,15.4-5.5,24.3-5.5c6.8,0,12.6,1.4,17.2,4c4.6,2.7,8.2,6.2,10.7,10.5c2.3,4,4,8.6,4.9,13.6c0.8,4.6,1.2,9.3,1.2,14v55.7
		c0,3.9-3.2,7.1-7.1,7.1H-472.4z"/>
	<path class="st3" d="M-401.5,334.7c-5.2,0-10.1-0.9-14.6-2.6c-4.6-1.7-8.7-4.2-12-7.4c-3.4-3.2-6.1-7-8-11.2
		c-1.9-4.3-2.9-9.1-2.9-14.2c0-5.3,1.2-10.4,3.6-15c2.4-4.5,5.7-8.4,9.9-11.5c4-3,8.8-5.3,14.2-7c5.3-1.6,11.2-2.4,17.4-2.4
		c4.4,0,8.7,0.4,12.9,1.1c0.4,0.1,0.8,0.2,1.3,0.2c-0.5-1.6-1.2-3-2.3-4c-2-1.9-5.3-2.8-10-2.8c-3.9,0-7.8,0.7-11.5,2.1
		c-4,1.5-8.2,3.7-12.4,6.7c-1.2,0.8-2.6,1.3-4,1.3c-0.6,0-1.2-0.1-1.8-0.2c-2-0.5-3.7-1.9-4.6-3.8l-7-14.5c-1.5-3.2-0.5-7,2.5-9
		c12.6-8.4,26.4-12.6,41.1-12.6c14.6,0,26.2,3.8,34.6,11.2c8.6,7.7,13,18.7,13,32.6v27.7c3.1,0.7,5.5,3.6,5.5,6.9v19.4
		c0,3.4-2.4,6.3-5.7,6.9c-4.4,0.9-8.1,1.3-11.5,1.3c-6,0-10.9-1.5-14.5-4.5c-1.6-1.3-2.9-2.8-4-4.5c-2.4,1.8-5,3.4-7.8,4.7
		C-386.8,333.1-394,334.7-401.5,334.7z M-390.2,290.4c-4.4,0-7.9,0.9-10.4,2.7c-2.3,1.7-2.6,3.1-2.6,4.4c0,1.8,0.6,3.1,2,4.3
		c1.7,1.4,3.7,2.1,6.3,2.1c3,0,5.7-0.5,8.4-1.6c2.3-0.9,4.1-2.1,5.3-3.4c0.3-0.4,0.7-0.7,1.1-1c0.6-0.5,0.9-0.8,1-1V292
		c-1-0.3-2.1-0.5-3.1-0.7C-385.1,290.7-387.8,290.4-390.2,290.4z"/>
	<path class="st3" d="M-282.8,334.7c-8.2,0-15.7-1.5-22.4-4.3c-6.6-2.9-12.4-6.8-17.1-11.7c-4.7-4.9-8.4-10.7-10.9-17.1
		c-2.5-6.4-3.8-13.2-3.8-20.2c0-7.1,1.3-13.9,3.7-20.3c2.5-6.4,6.2-12.2,10.9-17c4.7-4.9,10.5-8.8,17.1-11.6
		c6.7-2.9,14.2-4.3,22.4-4.3c11,0,20.7,2.5,28.7,7.3c8,4.9,14.1,11.4,18.1,19.4c0.9,1.9,1,4,0.2,6c-0.8,1.9-2.4,3.4-4.4,4l-22.3,6.8
		c-0.7,0.2-1.4,0.3-2.1,0.3c-2.5,0-4.8-1.3-6.1-3.5c-1.3-2.2-2.9-3.8-5-5c-2.1-1.2-4.5-1.8-7.1-1.8c-2.3,0-4.3,0.4-6.2,1.3
		c-2,0.9-3.6,2.1-5.1,3.8c-1.5,1.6-2.7,3.7-3.5,6.1c-0.9,2.5-1.4,5.4-1.4,8.5c0,3.1,0.5,5.9,1.4,8.4c0.9,2.5,2.2,4.6,3.7,6.3
		c1.5,1.7,3.1,2.9,5.1,3.8c1.9,0.9,3.9,1.3,6.1,1.3c2.8,0,5.4-0.7,7.7-2.1c2.2-1.3,3.7-2.7,4.4-4.4c1.2-2.6,3.7-4.1,6.4-4.1
		c0.7,0,1.4,0.1,2.1,0.3l22.3,6.8c1.9,0.6,3.5,2,4.4,3.9c0.8,1.9,0.8,4,0,5.8c-3.6,8.1-9.7,14.8-17.9,19.8
		C-261.8,332.2-271.6,334.7-282.8,334.7z"/>
	<path class="st3" d="M-224.5,220c-3.9,0-7.1-3.2-7.1-7.1v-22.7c0-3.9,3.2-7.1,7.1-7.1h22.8c3.9,0,7.1,3.2,7.1,7.1v22.7
		c0,3.9-3.2,7.1-7.1,7.1H-224.5z"/>
	<path class="st3" d="M-224.5,333c-3.9,0-7.1-3.2-7.1-7.1v-89.3c0-3.9,3.2-7.1,7.1-7.1h22.8c3.9,0,7.1,3.2,7.1,7.1v89.3
		c0,3.9-3.2,7.1-7.1,7.1H-224.5z"/>
	<path class="st3" d="M-136.1,334.7c-8.2,0-15.7-1.5-22.4-4.3c-6.7-2.9-12.4-6.8-17.1-11.8c-4.6-4.9-8.3-10.6-10.7-17
		c-2.5-6.4-3.7-13.1-3.7-20.1c0-7.1,1.3-13.9,3.7-20.3c2.5-6.4,6.1-12.1,10.7-17c4.7-4.9,10.4-8.9,17.1-11.8
		c6.7-2.9,14.2-4.3,22.4-4.3c8.2,0,15.7,1.5,22.3,4.3c6.6,2.9,12.3,6.8,17,11.8c4.6,4.9,8.3,10.6,10.7,17c2.5,6.4,3.7,13.2,3.7,20.3
		c0,7-1.3,13.7-3.7,20.1c-2.5,6.4-6.1,12.1-10.6,17c-4.6,5-10.4,8.9-17,11.8C-120.3,333.3-127.9,334.7-136.1,334.7z M-136.1,261.6
		c-2.2,0-4.2,0.4-6.1,1.3c-2,1-3.7,2.2-5.2,3.9c-1.5,1.7-2.7,3.8-3.6,6.2c-0.9,2.5-1.4,5.3-1.4,8.3c0,3.1,0.5,5.9,1.4,8.4
		c0.9,2.4,2.1,4.5,3.6,6.2c1.5,1.7,3.1,2.9,5.1,3.8c1.9,0.9,4,1.3,6.2,1.3s4.3-0.4,6.2-1.3c1.9-0.9,3.6-2.1,5.1-3.8
		c1.5-1.7,2.7-3.8,3.6-6.2c0.9-2.5,1.4-5.4,1.4-8.5c0-3-0.5-5.8-1.4-8.3c-0.9-2.4-2.1-4.5-3.6-6.2c-1.5-1.6-3.1-2.9-5.1-3.8
		C-131.8,262.1-133.8,261.6-136.1,261.6z"/>
</g>
<g>
	<path d="M-594.1,213.3c-11.6,0-21.8-2.9-30.3-8.7c-2.5-1.7-3.6-4.8-2.8-7.7l5.3-19.1c0.6-2.2,2.3-4,4.5-4.8
		c0.8-0.3,1.6-0.4,2.4-0.4c1.5,0,2.9,0.5,4.1,1.3c0.5,0.3,2,1.3,6.3,2.9c3,1.1,6.5,1.6,10.5,1.6c3.4,0,6.2-0.5,7.9-1.5
		c1.5-0.9,2.7-2.3,3.5-4.3c1.2-2.7,2-6.2,2.3-10.5c0.4-4.8,0.7-10.6,0.7-17.2V83.4c0-3.9,3.2-7.1,7.1-7.1h23.5
		c3.9,0,7.1,3.2,7.1,7.1v61.5c0,9.4-0.5,18.2-1.5,26c-1.1,8.5-3.5,15.9-7,22c-3.8,6.5-9.4,11.6-16.5,15.2
		C-574,211.6-582.9,213.3-594.1,213.3z"/>
	<path d="M-496.5,213.2c-11.4,0-20.3-3.9-26.5-11.5c-5.8-7.2-8.7-17.5-8.7-30.7v-55.9c0-3.9,3.2-7.1,7.1-7.1h22.8
		c3.9,0,7.1,3.2,7.1,7.1V166c0,13.5,5,13.5,7.7,13.5c3.1,0,6-0.9,9-2.9c2.7-1.7,5-4.4,6.9-7.9v-53.7c0-3.9,3.2-7.1,7.1-7.1h22.8
		c3.9,0,7.1,3.2,7.1,7.1v63c3.1,0.7,5.5,3.6,5.5,6.9v19.4c0,3.4-2.4,6.3-5.7,7c-2.6,0.5-4.7,0.8-6.6,1c-1.8,0.1-3.3,0.2-4.7,0.2
		c-5.6,0-10.4-1.4-14.2-4.2c-2.1-1.5-3.8-3.4-5-5.5c-2.5,2-5.2,3.7-8,5.1C-479.9,211.4-487.9,213.2-496.5,213.2z"/>
	<path d="M-390.3,213.2c-5.2,0-10.1-0.9-14.6-2.6c-4.6-1.7-8.7-4.2-12-7.4c-3.4-3.2-6.1-7-8-11.2c-1.9-4.3-2.9-9.1-2.9-14.2
		c0-5.3,1.2-10.4,3.6-15c2.4-4.5,5.7-8.4,9.9-11.5c4-3,8.8-5.3,14.2-7c5.3-1.6,11.2-2.4,17.4-2.4c4.4,0,8.7,0.4,12.9,1.1
		c0.4,0.1,0.8,0.2,1.3,0.2c-0.5-1.6-1.2-3-2.3-4c-2-1.9-5.3-2.8-10-2.8c-3.9,0-7.8,0.7-11.5,2.1c-4,1.5-8.2,3.7-12.4,6.7
		c-1.2,0.8-2.6,1.3-4,1.3c-0.6,0-1.2-0.1-1.8-0.2c-2-0.5-3.7-1.9-4.6-3.8l-7-14.5c-1.5-3.2-0.5-7,2.5-9
		c12.6-8.4,26.4-12.6,41.1-12.6c14.6,0,26.2,3.8,34.6,11.2c8.6,7.7,13,18.7,13,32.6V178c3.1,0.7,5.5,3.6,5.5,6.9v19.4
		c0,3.4-2.4,6.3-5.7,6.9c-4.4,0.9-8.1,1.3-11.5,1.3c-6,0-10.9-1.5-14.5-4.5c-1.6-1.3-2.9-2.8-4-4.5c-2.4,1.8-5,3.4-7.8,4.7
		C-375.7,211.5-382.8,213.2-390.3,213.2z M-379.1,168.9c-4.4,0-7.9,0.9-10.4,2.7c-2.3,1.7-2.6,3.1-2.6,4.4c0,1.8,0.6,3,2,4.3
		c1.7,1.4,3.7,2.1,6.3,2.1c3,0,5.7-0.5,8.4-1.6c2.3-0.9,4.1-2.1,5.3-3.4c0.3-0.4,0.7-0.7,1.1-1c0.6-0.5,0.9-0.8,1-1v-4.9
		c-1-0.3-2.1-0.5-3.1-0.7C-374,169.1-376.6,168.9-379.1,168.9z"/>
	<path d="M-253,211.5c-3.9,0-7.1-3.2-7.1-7.1v-50.1c0-7.3-1.4-10.3-2.3-11.4c-0.8-1.1-2-2.1-4.7-2.1c-1.4,0-2.9,0.3-4.5,0.9
		c-1.7,0.7-3.4,1.6-4.9,2.8c-1.6,1.3-3.1,2.8-4.4,4.5c-1,1.4-1.8,2.8-2.3,4.3v51c0,3.9-3.2,7.1-7.1,7.1h-22.8
		c-3.9,0-7.1-3.2-7.1-7.1v-89.3c0-3.9,3.2-7.1,7.1-7.1h20.6c3.7,0,6.7,2.8,7,6.3c1.3-0.8,2.6-1.6,4-2.3c7.2-3.7,15.4-5.5,24.3-5.5
		c6.8,0,12.6,1.4,17.2,4c4.6,2.7,8.2,6.2,10.7,10.6c2.4,4,4,8.6,4.9,13.6c0.8,4.6,1.2,9.3,1.2,14v55.7c0,3.9-3.2,7.1-7.1,7.1H-253z"
		/>
	<path d="M-681.7,326.4c-3.9,0-7.1-3.2-7.1-7.1V183.6c0-3.9,3.2-7.1,7.1-7.1h23.5c3.9,0,7.1,3.2,7.1,7.1v135.7
		c0,3.9-3.2,7.1-7.1,7.1H-681.7z"/>
	<path d="M-594.6,364.4c-10.8,0-20.1-1.9-27.7-5.6c-7.6-3.7-14.1-8.9-19.5-15.6c-2.3-2.8-2.1-7,0.6-9.5l12.4-12.1
		c1.3-1.3,3.1-2,4.9-2c0.1,0,0.3,0,0.4,0c0.6,0,1.1,0.1,1.6,0.3c-3.7-2.4-7.1-5.4-10.1-8.8c-4.1-4.8-7.4-10.4-9.6-16.7
		c-2.2-6.2-3.3-12.8-3.3-19.7c0-7.3,1.2-14.2,3.5-20.5c2.3-6.3,5.6-12,9.8-16.8c4.3-4.9,9.5-8.9,15.5-11.7c6-2.8,12.7-4.2,19.9-4.2
		c8.2,0,15.5,1.9,21.9,5.7c0.8,0.5,1.6,1,2.4,1.5c0.7-3.2,3.5-5.7,6.9-5.7h19.9c3.9,0,7.1,3.2,7.1,7.1v85c0,7.6-1.5,14.6-4.4,20.8
		c-2.9,6.1-7,11.4-12.2,15.7c-5.1,4.2-11.1,7.4-18.1,9.7C-579.4,363.3-586.8,364.4-594.6,364.4z M-618.9,321.6
		c0.2,0.2,0.4,0.4,0.5,0.6c2.7,3.4,6.1,6,10.3,7.9c4.3,2,8.7,2.9,13.5,2.9c2.8,0,5.5-0.4,8.1-1.2c2.3-0.7,4.4-1.8,6.1-3.2
		c1.6-1.3,2.9-3.1,3.9-5.2c0.3-0.7,0.6-1.4,0.8-2.2c-0.4,0.3-0.9,0.5-1.3,0.7c-6.3,3.3-13.2,5-20.5,5c-7.1,0-13.6-1.4-19.5-4.3
		C-617.6,322.3-618.3,321.9-618.9,321.6z M-591.2,255c-2.3,0-4.4,0.5-6.2,1.4c-2,1.1-3.7,2.5-5.2,4.3c-1.5,1.9-2.7,4.1-3.5,6.6
		c-0.8,2.6-1.3,5.3-1.3,8c0,2.8,0.5,5.3,1.4,7.6c0.9,2.4,2.2,4.4,3.8,6.1c1.6,1.7,3.4,3,5.5,4c2,0.9,4.2,1.4,6.7,1.4
		c1.7,0,3.3-0.3,4.8-0.8c1.6-0.6,3.2-1.4,4.6-2.3c1.4-1,2.6-2.1,3.7-3.4c0.7-0.9,1.3-1.8,1.8-2.8v-18.4c-1.5-3.4-3.8-6.1-6.7-8.3
		C-584.8,256.1-587.9,255-591.2,255z"/>
	<path d="M-460.5,326.4c-3.9,0-7.1-3.2-7.1-7.1v-50.1c0-7.3-1.4-10.3-2.3-11.4c-0.8-1.1-2-2.1-4.7-2.1c-1.4,0-2.9,0.3-4.5,0.9
		c-1.7,0.7-3.3,1.6-4.9,2.8c-1.6,1.3-3.1,2.8-4.4,4.5c-1,1.4-1.8,2.8-2.3,4.3v51c0,3.9-3.2,7.1-7.1,7.1h-22.8
		c-3.9,0-7.1-3.2-7.1-7.1V230c0-3.9,3.2-7.1,7.1-7.1h20.6c3.7,0,6.7,2.8,7,6.3c1.3-0.8,2.6-1.6,4-2.3c7.2-3.7,15.4-5.5,24.3-5.5
		c6.8,0,12.6,1.4,17.2,4c4.6,2.7,8.2,6.2,10.7,10.5c2.3,4,4,8.6,4.9,13.6c0.8,4.6,1.2,9.3,1.2,14v55.7c0,3.9-3.2,7.1-7.1,7.1H-460.5
		z"/>
	<path d="M-389.7,328.1c-5.2,0-10.1-0.9-14.6-2.6c-4.6-1.7-8.7-4.2-12-7.4c-3.4-3.2-6.1-7-8-11.2c-1.9-4.3-2.9-9.1-2.9-14.2
		c0-5.3,1.2-10.4,3.6-15c2.4-4.5,5.7-8.4,9.9-11.5c4-3,8.8-5.3,14.2-7c5.3-1.6,11.2-2.4,17.4-2.4c4.4,0,8.7,0.4,12.9,1.1
		c0.4,0.1,0.8,0.2,1.3,0.2c-0.5-1.6-1.2-3-2.3-4c-2-1.9-5.3-2.8-10-2.8c-3.9,0-7.8,0.7-11.5,2.1c-4,1.5-8.2,3.7-12.4,6.7
		c-1.2,0.8-2.6,1.3-4,1.3c-0.6,0-1.2-0.1-1.8-0.2c-2-0.5-3.7-1.9-4.6-3.8l-7-14.5c-1.5-3.2-0.5-7,2.5-9
		c12.6-8.4,26.4-12.6,41.1-12.6c14.6,0,26.2,3.8,34.6,11.2c8.6,7.7,13,18.7,13,32.6V293c3.1,0.7,5.5,3.6,5.5,6.9v19.4
		c0,3.4-2.4,6.3-5.7,6.9c-4.4,0.9-8.1,1.3-11.5,1.3c-6,0-10.9-1.5-14.5-4.5c-1.6-1.3-2.9-2.8-4-4.5c-2.4,1.8-5,3.4-7.8,4.7
		C-375,326.5-382.2,328.1-389.7,328.1z M-378.4,283.8c-4.4,0-7.9,0.9-10.4,2.7c-2.3,1.7-2.6,3.1-2.6,4.4c0,1.8,0.6,3.1,2,4.3
		c1.7,1.4,3.7,2.1,6.3,2.1c3,0,5.7-0.5,8.4-1.6c2.3-0.9,4.1-2.1,5.3-3.4c0.3-0.4,0.7-0.7,1.1-1c0.6-0.5,0.9-0.8,1-1v-4.9
		c-1-0.3-2.1-0.5-3.1-0.7C-373.3,284-375.9,283.8-378.4,283.8z"/>
	<path d="M-270.9,328.1c-8.2,0-15.7-1.5-22.4-4.3c-6.6-2.9-12.4-6.8-17.1-11.7c-4.7-4.9-8.4-10.7-10.9-17.1
		c-2.5-6.4-3.8-13.2-3.8-20.2c0-7.1,1.3-13.9,3.7-20.3c2.5-6.4,6.2-12.2,10.9-17c4.7-4.9,10.5-8.8,17.1-11.6
		c6.7-2.9,14.2-4.3,22.4-4.3c11,0,20.7,2.5,28.7,7.3c8,4.9,14.1,11.4,18.1,19.4c0.9,1.9,1,4,0.2,6c-0.8,1.9-2.4,3.4-4.4,4l-22.3,6.8
		c-0.7,0.2-1.4,0.3-2.1,0.3c-2.5,0-4.8-1.3-6.1-3.5c-1.3-2.2-2.9-3.8-5-5c-2.1-1.2-4.5-1.8-7.1-1.8c-2.3,0-4.3,0.4-6.2,1.3
		c-2,0.9-3.6,2.1-5.1,3.8c-1.5,1.6-2.7,3.7-3.5,6.1c-0.9,2.5-1.4,5.4-1.4,8.5c0,3.1,0.5,5.9,1.4,8.4c0.9,2.5,2.2,4.6,3.7,6.3
		c1.5,1.7,3.1,2.9,5.1,3.8c1.9,0.9,3.9,1.3,6.1,1.3c2.8,0,5.4-0.7,7.7-2.1c2.2-1.3,3.7-2.7,4.4-4.4c1.2-2.6,3.7-4.1,6.4-4.1
		c0.7,0,1.4,0.1,2.1,0.3l22.3,6.8c1.9,0.6,3.5,2,4.4,3.9c0.8,1.9,0.8,4,0,5.8c-3.6,8.1-9.7,14.8-17.9,19.8
		C-250,325.5-259.8,328.1-270.9,328.1z"/>
	<path d="M-212.7,213.3c-3.9,0-7.1-3.2-7.1-7.1v-22.7c0-3.9,3.2-7.1,7.1-7.1h22.8c3.9,0,7.1,3.2,7.1,7.1v22.7c0,3.9-3.2,7.1-7.1,7.1
		H-212.7z"/>
	<path d="M-212.7,326.4c-3.9,0-7.1-3.2-7.1-7.1V230c0-3.9,3.2-7.1,7.1-7.1h22.8c3.9,0,7.1,3.2,7.1,7.1v89.3c0,3.9-3.2,7.1-7.1,7.1
		H-212.7z"/>
	<path d="M-124.3,328.1c-8.2,0-15.7-1.5-22.4-4.3c-6.7-2.9-12.4-6.8-17.1-11.8c-4.6-4.9-8.3-10.6-10.7-17
		c-2.5-6.4-3.7-13.1-3.7-20.1c0-7.1,1.3-13.9,3.7-20.3c2.5-6.4,6.1-12.1,10.7-17c4.7-4.9,10.4-8.9,17.1-11.8
		c6.7-2.9,14.2-4.3,22.4-4.3c8.2,0,15.7,1.5,22.3,4.3c6.6,2.9,12.3,6.8,17,11.8c4.6,4.9,8.3,10.6,10.7,17c2.5,6.4,3.7,13.2,3.7,20.3
		c0,7-1.3,13.7-3.7,20.1c-2.5,6.4-6.1,12.1-10.6,17c-4.6,5-10.4,8.9-17,11.8C-108.5,326.6-116.1,328.1-124.3,328.1z M-124.3,255
		c-2.2,0-4.2,0.4-6.1,1.3c-2,1-3.7,2.2-5.2,3.9c-1.5,1.7-2.7,3.8-3.6,6.2c-0.9,2.5-1.4,5.3-1.4,8.3c0,3.1,0.5,5.9,1.4,8.4
		c0.9,2.4,2.1,4.5,3.6,6.2c1.5,1.7,3.1,2.9,5.1,3.8c1.9,0.9,4,1.3,6.2,1.3s4.3-0.4,6.2-1.3c1.9-0.9,3.6-2.1,5.1-3.8
		c1.5-1.7,2.7-3.8,3.6-6.2c0.9-2.5,1.4-5.4,1.4-8.5c0-3-0.5-5.8-1.4-8.3c-0.9-2.4-2.1-4.5-3.6-6.2c-1.5-1.6-3.1-2.9-5.1-3.8
		C-119.9,255.4-122,255-124.3,255z"/>
</g>
<g>
	<path class="st4" d="M-612.7,179c1.6,1.1,4.3,2.4,8,3.7c3.7,1.4,8.1,2,12.9,2c4.8,0,8.6-0.8,11.4-2.5c2.8-1.6,5-4.2,6.5-7.6
		c1.5-3.4,2.4-7.6,2.9-12.7c0.5-5.1,0.7-11,0.7-17.8V82.8h23.5v61.5c0,9.2-0.5,17.6-1.4,25.1c-1,7.6-3,14-6.1,19.3
		c-3.1,5.3-7.6,9.5-13.5,12.4c-5.9,3-13.9,4.4-23.9,4.4c-10.2,0-19-2.5-26.2-7.5L-612.7,179z"/>
	<path class="st4" d="M-494.1,205.5c-9.2,0-16.2-3-21-8.9c-4.8-5.9-7.2-14.7-7.2-26.2v-55.9h22.8v50.9c0,13.7,4.9,20.6,14.8,20.6
		c4.4,0,8.7-1.3,12.9-4c4.1-2.7,7.5-6.7,10.1-12.2v-55.4h22.8v63c0,2.4,0.4,4.1,1.3,5.1c0.9,1,2.2,1.6,4.2,1.7v19.4
		c-2.3,0.5-4.2,0.7-5.7,0.9c-1.5,0.1-2.9,0.2-4.2,0.2c-4.1,0-7.4-0.9-10-2.8c-2.6-1.9-4.1-4.5-4.5-7.8l-0.5-7.2
		c-4,6.1-9.1,10.7-15.3,13.8C-479.8,203.9-486.6,205.5-494.1,205.5z"/>
	<path class="st4" d="M-388,205.5c-4.3,0-8.3-0.7-12.1-2.1c-3.7-1.4-7-3.4-9.7-6c-2.7-2.6-4.9-5.5-6.4-8.9
		c-1.5-3.4-2.3-7.2-2.3-11.2c0-4.2,0.9-8.1,2.8-11.7c1.9-3.6,4.5-6.6,7.8-9.1c3.3-2.5,7.4-4.5,12-5.9c4.7-1.4,9.8-2.1,15.3-2.1
		c4,0,7.9,0.3,11.7,1c3.8,0.7,7.2,1.6,10.1,2.9v-5.1c0-5.9-1.7-10.4-5-13.6c-3.4-3.2-8.3-4.8-14.9-4.8c-4.8,0-9.4,0.9-14,2.6
		c-4.5,1.7-9.2,4.2-14,7.5l-7-14.5c11.5-7.6,23.9-11.4,37.1-11.4c12.8,0,22.8,3.2,29.9,9.5c7.1,6.3,10.6,15.4,10.6,27.3v27.8
		c0,2.4,0.4,4.1,1.3,5.1c0.9,1,2.2,1.6,4.2,1.7v19.4c-3.9,0.8-7.2,1.2-10.1,1.2c-4.3,0-7.6-1-10-2.9c-2.3-1.9-3.8-4.5-4.3-7.7
		l-0.5-4.9c-4,5.2-8.8,9.2-14.5,11.9C-375.5,204.1-381.5,205.5-388,205.5z M-381.5,188.8c3.9,0,7.5-0.7,11-2
		c3.5-1.4,6.2-3.2,8.1-5.5c2.5-1.9,3.7-4.1,3.7-6.5v-10.2c-2.7-1-5.7-1.8-8.9-2.5c-3.2-0.6-6.2-0.9-9.2-0.9c-5.9,0-10.7,1.3-14.5,4
		c-3.7,2.7-5.6,6-5.6,10.1c0,3.9,1.5,7.1,4.4,9.6C-389.5,187.5-385.9,188.8-381.5,188.8z"/>
	<path class="st4" d="M-227.9,203.7h-22.8v-50.1c0-7.2-1.3-12.4-3.7-15.7c-2.5-3.3-6-4.9-10.4-4.9c-2.3,0-4.6,0.5-7,1.4
		c-2.4,0.9-4.6,2.2-6.7,3.8c-2.1,1.6-4,3.6-5.7,5.9c-1.7,2.3-3,4.8-3.7,7.5v52.1h-22.8v-89.3h20.6V131c3.3-5.7,8.1-10.1,14.3-13.3
		c6.2-3.2,13.3-4.8,21.1-4.8c5.6,0,10.1,1,13.6,3.1c3.5,2,6.2,4.7,8.2,8c1.9,3.3,3.3,7,4,11.2c0.7,4.2,1.1,8.5,1.1,12.8V203.7z"/>
	<path class="st4" d="M-679.3,318.7V183h23.5v135.7H-679.3z"/>
	<path class="st4" d="M-595.2,319.2c-6,0-11.5-1.2-16.4-3.6c-4.9-2.4-9.1-5.6-12.7-9.8c-3.6-4.1-6.3-8.9-8.3-14.4
		c-1.9-5.5-2.9-11.2-2.9-17.4c0-6.5,1-12.5,3.1-18.1c2-5.6,4.9-10.4,8.5-14.7c3.6-4.2,8-7.5,13.1-9.9c5.1-2.4,10.7-3.6,16.9-3.6
		c6.9,0,13,1.6,18.2,4.7c5.2,3.1,9.5,7.3,12.9,12.5v-15.7h19.9v85c0,6.6-1.2,12.5-3.7,17.7c-2.5,5.2-5.9,9.7-10.3,13.3
		c-4.4,3.6-9.6,6.4-15.7,8.3c-6.1,1.9-12.7,2.9-19.8,2.9c-9.8,0-18-1.6-24.6-4.9c-6.6-3.2-12.4-7.8-17.1-13.7l12.4-12.1
		c3.4,4.2,7.7,7.5,12.9,9.9c5.2,2.4,10.6,3.6,16.4,3.6c3.5,0,6.9-0.5,10.1-1.4c3.2-1,6.1-2.5,8.6-4.5c2.5-2,4.5-4.7,5.9-7.8
		c1.4-3.2,2.1-6.9,2.1-11.2v-11.2c-3,5.1-7.1,9.1-12.4,11.8C-583.3,317.8-589,319.2-595.2,319.2z M-587.5,300.9
		c2.5,0,4.9-0.4,7.2-1.2c2.3-0.8,4.4-1.9,6.3-3.2c1.9-1.4,3.6-3,5.1-4.8c1.5-1.8,2.6-3.7,3.4-5.8v-21.3c-2-5.2-5.3-9.4-9.6-12.6
		c-4.4-3.2-8.9-4.8-13.7-4.8c-3.5,0-6.7,0.8-9.5,2.3c-2.8,1.5-5.3,3.6-7.3,6.1c-2,2.6-3.6,5.5-4.7,8.8c-1.1,3.3-1.6,6.7-1.6,10.2
		c0,3.6,0.6,7,1.9,10.2c1.2,3.2,3,6,5.2,8.3c2.2,2.4,4.8,4.3,7.8,5.6C-594.3,300.3-591,300.9-587.5,300.9z"/>
	<path class="st4" d="M-435.4,318.7h-22.8v-50.1c0-7.2-1.3-12.4-3.7-15.7c-2.5-3.3-6-4.9-10.4-4.9c-2.3,0-4.6,0.5-7,1.4
		c-2.4,0.9-4.6,2.2-6.7,3.8c-2.1,1.6-4,3.6-5.7,5.9c-1.7,2.3-3,4.8-3.7,7.5v52.1h-22.8v-89.3h20.6v16.5c3.3-5.7,8.1-10.1,14.3-13.3
		c6.2-3.2,13.3-4.8,21.1-4.8c5.6,0,10.1,1,13.6,3.1c3.5,2,6.2,4.7,8.2,8c1.9,3.3,3.3,7,4,11.2c0.7,4.2,1.1,8.5,1.1,12.8V318.7z"/>
	<path class="st4" d="M-387.3,320.4c-4.3,0-8.3-0.7-12.1-2.1c-3.7-1.4-7-3.4-9.7-6c-2.7-2.6-4.9-5.5-6.4-8.9
		c-1.5-3.4-2.3-7.2-2.3-11.2c0-4.2,0.9-8.1,2.8-11.7c1.9-3.6,4.5-6.6,7.8-9.1c3.3-2.5,7.4-4.5,12-5.9c4.7-1.4,9.8-2.1,15.3-2.1
		c4,0,7.9,0.3,11.7,1c3.8,0.7,7.2,1.6,10.1,2.9v-5.1c0-5.9-1.7-10.4-5-13.6c-3.4-3.2-8.3-4.8-14.9-4.8c-4.8,0-9.4,0.9-14,2.6
		c-4.5,1.7-9.2,4.2-14,7.5l-7-14.5c11.5-7.6,23.9-11.4,37.1-11.4c12.8,0,22.8,3.2,29.9,9.5c7.1,6.3,10.6,15.4,10.6,27.3v27.8
		c0,2.4,0.4,4.1,1.3,5.1c0.9,1,2.2,1.6,4.2,1.7v19.4c-3.9,0.8-7.2,1.2-10.1,1.2c-4.3,0-7.6-1-10-2.9c-2.3-1.9-3.8-4.5-4.3-7.7
		l-0.5-4.9c-4,5.2-8.8,9.2-14.5,11.9C-374.8,319-380.9,320.4-387.3,320.4z M-380.9,303.7c3.9,0,7.5-0.7,11-2
		c3.5-1.4,6.2-3.2,8.1-5.5c2.5-1.9,3.7-4.1,3.7-6.5v-10.2c-2.7-1-5.7-1.8-8.9-2.5c-3.2-0.6-6.2-0.9-9.2-0.9c-5.9,0-10.7,1.3-14.5,4
		c-3.7,2.7-5.6,6-5.6,10.1c0,3.9,1.5,7.1,4.4,9.6C-388.8,302.4-385.2,303.7-380.9,303.7z"/>
	<path class="st4" d="M-313.9,273.2c0-6.2,1.1-12.2,3.2-17.7c2.2-5.6,5.3-10.4,9.4-14.7c4.1-4.2,9-7.6,14.8-10.1
		c5.8-2.5,12.3-3.7,19.6-3.7c9.8,0,18.1,2.1,25,6.3c6.9,4.2,12,9.7,15.4,16.5l-22.3,6.8c-1.9-3.3-4.5-5.8-7.7-7.6
		c-3.2-1.8-6.7-2.6-10.6-2.6c-3.3,0-6.4,0.7-9.2,2c-2.8,1.3-5.3,3.1-7.4,5.5c-2.1,2.3-3.7,5.1-4.9,8.4c-1.2,3.3-1.8,6.9-1.8,10.9
		c0,4,0.6,7.6,1.9,10.9c1.2,3.3,2.9,6.1,5,8.5c2.1,2.4,4.6,4.2,7.4,5.5c2.8,1.3,5.8,2,9,2c4.1,0,7.9-1,11.3-3.1
		c3.5-2,5.9-4.5,7.2-7.5l22.3,6.8c-3.1,6.8-8.1,12.4-15.2,16.7c-7,4.3-15.5,6.5-25.4,6.5c-7.3,0-13.8-1.3-19.6-3.7
		c-5.8-2.5-10.7-5.9-14.8-10.1c-4.1-4.3-7.2-9.2-9.5-14.8C-312.8,285.2-313.9,279.3-313.9,273.2z"/>
	<rect x="-210.3" y="183" class="st4" width="22.8" height="22.7"/>
	<rect x="-210.3" y="229.4" class="st4" width="22.8" height="89.3"/>
	<path class="st4" d="M-121.9,320.4c-7.3,0-13.8-1.3-19.6-3.7s-10.7-5.9-14.7-10.1c-4-4.3-7.1-9.2-9.3-14.7
		c-2.2-5.6-3.2-11.4-3.2-17.5c0-6.2,1.1-12.2,3.2-17.7c2.2-5.6,5.3-10.5,9.3-14.7c4-4.3,8.9-7.6,14.7-10.1
		c5.8-2.5,12.3-3.7,19.6-3.7c7.3,0,13.8,1.3,19.5,3.7c5.7,2.5,10.6,5.9,14.7,10.1c4,4.3,7.1,9.2,9.3,14.7c2.2,5.6,3.2,11.5,3.2,17.7
		c0,6.1-1.1,12-3.2,17.5c-2.2,5.6-5.2,10.5-9.2,14.7c-4,4.3-8.9,7.6-14.7,10.1S-114.6,320.4-121.9,320.4z M-145.3,274.2
		c0,4,0.6,7.6,1.8,10.8c1.2,3.2,2.8,6,4.9,8.4c2.1,2.4,4.6,4.2,7.4,5.5c2.8,1.3,5.9,2,9.2,2c3.3,0,6.4-0.7,9.2-2
		c2.8-1.3,5.3-3.2,7.4-5.5c2.1-2.4,3.7-5.2,4.9-8.5c1.2-3.3,1.8-6.9,1.8-10.9c0-3.9-0.6-7.4-1.8-10.7c-1.2-3.3-2.8-6.1-4.9-8.5
		c-2.1-2.4-4.6-4.2-7.4-5.5c-2.8-1.3-5.9-2-9.2-2c-3.3,0-6.4,0.7-9.2,2c-2.8,1.4-5.3,3.2-7.4,5.6c-2.1,2.4-3.7,5.2-4.9,8.5
		C-144.7,266.8-145.3,270.3-145.3,274.2z"/>
</g>
<path class="st4" d="M1537.3,26.7l-70.6,42.1V56.2l53.9-32.9l-53.9-33V-22l70.6,42.5V26.7z"/>
<path class="st4" d="M833.6-34.4l70.6-42.5v12.3l-53.9,33l53.9,32.9V14l-70.6-42.1V-34.4z"/>
<g>
	<path class="st5" d="M141.2,128.6c1.2,0.9,3.3,1.8,6.2,2.9c2.9,1.1,6.2,1.6,10,1.6c3.7,0,6.6-0.6,8.8-1.9c2.2-1.3,3.9-3.2,5-5.8
		c1.1-2.6,1.9-5.9,2.2-9.8c0.3-3.9,0.5-8.5,0.5-13.7V77.7h18.1v24.2c0,7.1-0.4,13.6-1.1,19.4c-0.7,5.8-2.3,10.8-4.7,14.9
		c-2.4,4.1-5.9,7.3-10.4,9.6c-4.6,2.3-10.7,3.4-18.4,3.4c-7.9,0-14.6-1.9-20.2-5.8L141.2,128.6z"/>
	<path class="st5" d="M232.7,149c-7.1,0-12.5-2.3-16.2-6.8c-3.7-4.6-5.5-11.3-5.5-20.2V78.8h17.6v39.3c0,10.6,3.8,15.9,11.4,15.9
		c3.4,0,6.7-1,9.9-3.1c3.2-2.1,5.8-5.2,7.8-9.4V78.8h17.6v48.6c0,1.8,0.3,3.2,1,3.9c0.7,0.8,1.7,1.2,3.2,1.3v15
		c-1.8,0.3-3.2,0.6-4.4,0.7c-1.2,0.1-2.3,0.1-3.2,0.1c-3.2,0-5.7-0.7-7.7-2.2c-2-1.4-3.1-3.4-3.5-6l-0.4-5.5
		c-3.1,4.7-7,8.3-11.8,10.6C243.8,147.8,238.5,149,232.7,149z"/>
	<path class="st5" d="M314.5,149c-3.3,0-6.4-0.5-9.3-1.6c-2.9-1.1-5.4-2.6-7.5-4.6c-2.1-2-3.7-4.3-4.9-6.9c-1.2-2.6-1.8-5.5-1.8-8.7
		c0-3.2,0.7-6.2,2.2-9c1.4-2.8,3.5-5.1,6-7c2.6-1.9,5.7-3.4,9.3-4.5c3.6-1.1,7.5-1.6,11.8-1.6c3.1,0,6.1,0.3,9,0.8
		c2.9,0.5,5.5,1.3,7.8,2.2v-3.9c0-4.6-1.3-8.1-3.9-10.5c-2.6-2.5-6.4-3.7-11.5-3.7c-3.7,0-7.3,0.7-10.8,2c-3.5,1.3-7.1,3.2-10.8,5.8
		l-5.4-11.2c8.8-5.9,18.4-8.8,28.6-8.8c9.9,0,17.6,2.4,23.1,7.3c5.5,4.9,8.2,11.9,8.2,21.1v21.4c0,1.8,0.3,3.2,1,3.9
		c0.7,0.8,1.7,1.2,3.2,1.3v15c-3,0.6-5.6,0.9-7.8,0.9c-3.3,0-5.9-0.7-7.7-2.2c-1.8-1.5-2.9-3.5-3.4-5.9l-0.4-3.8
		c-3.1,4-6.8,7.1-11.2,9.2C324.2,148,319.5,149,314.5,149z M319.5,136.1c3,0,5.8-0.5,8.5-1.6c2.7-1.1,4.8-2.5,6.2-4.2
		c1.9-1.5,2.9-3.2,2.9-5v-7.9c-2.1-0.8-4.4-1.4-6.8-1.9c-2.5-0.5-4.8-0.7-7.1-0.7c-4.6,0-8.3,1-11.2,3.1c-2.9,2.1-4.3,4.7-4.3,7.8
		c0,3,1.1,5.5,3.4,7.4C313.4,135.1,316.2,136.1,319.5,136.1z"/>
	<path class="st5" d="M438.1,147.7h-17.6v-38.6c0-5.5-1-9.5-2.9-12.1c-1.9-2.5-4.6-3.8-8-3.8c-1.8,0-3.5,0.4-5.4,1.1
		c-1.8,0.7-3.6,1.7-5.2,3c-1.6,1.3-3.1,2.8-4.4,4.5c-1.3,1.8-2.3,3.7-2.9,5.8v40.2h-17.6V78.8H390v12.7c2.5-4.4,6.2-7.8,11-10.2
		c4.8-2.5,10.2-3.7,16.3-3.7c4.3,0,7.8,0.8,10.5,2.4c2.7,1.6,4.8,3.6,6.3,6.2c1.5,2.5,2.5,5.4,3.1,8.7c0.6,3.2,0.9,6.5,0.9,9.9
		V147.7z"/>
	<path class="st5" d="M141,257.7v-68.9h18.1v68.9H141z"/>
	<path class="st5" d="M205.4,231.5c-4.6,0-8.8-0.9-12.6-2.8c-3.8-1.8-7-4.4-9.8-7.6c-2.8-3.2-4.9-6.9-6.4-11.1
		c-1.5-4.2-2.2-8.7-2.2-13.4c0-5,0.8-9.6,2.4-13.9c1.6-4.3,3.8-8.1,6.6-11.3c2.8-3.2,6.2-5.8,10.1-7.6c3.9-1.8,8.3-2.8,13-2.8
		c5.3,0,10,1.2,14.1,3.6c4,2.4,7.4,5.6,10,9.7v-12.1h15.4v65.6c0,5.1-1,9.6-2.9,13.7c-1.9,4-4.6,7.4-8,10.2
		c-3.4,2.8-7.4,4.9-12.1,6.4c-4.7,1.5-9.8,2.2-15.3,2.2c-7.5,0-13.9-1.2-19-3.7c-5.1-2.5-9.5-6-13.2-10.6l9.6-9.3
		c2.6,3.2,5.9,5.8,9.9,7.6c4,1.8,8.2,2.8,12.7,2.8c2.7,0,5.3-0.4,7.8-1.1c2.5-0.7,4.7-1.9,6.6-3.5c1.9-1.6,3.4-3.6,4.5-6
		c1.1-2.5,1.6-5.3,1.6-8.7v-8.7c-2.3,3.9-5.5,7-9.6,9.1C214.5,230.5,210.1,231.5,205.4,231.5z M211.3,217.5c1.9,0,3.8-0.3,5.5-0.9
		c1.8-0.6,3.4-1.4,4.9-2.5c1.5-1.1,2.8-2.3,3.9-3.7c1.1-1.4,2-2.9,2.6-4.5v-16.4c-1.6-4-4.1-7.3-7.4-9.7c-3.4-2.5-6.9-3.7-10.6-3.7
		c-2.7,0-5.2,0.6-7.4,1.8c-2.2,1.2-4.1,2.8-5.7,4.7c-1.6,2-2.8,4.2-3.6,6.8c-0.8,2.5-1.2,5.2-1.2,7.9c0,2.8,0.5,5.4,1.4,7.9
		c1,2.5,2.3,4.6,4,6.4c1.7,1.8,3.7,3.3,6,4.3C206.1,217,208.6,217.5,211.3,217.5z"/>
	<path class="st5" d="M328.6,231.2H311v-38.6c0-5.5-1-9.5-2.9-12.1c-1.9-2.5-4.6-3.8-8-3.8c-1.8,0-3.5,0.4-5.4,1.1
		c-1.8,0.7-3.6,1.7-5.2,3c-1.6,1.3-3.1,2.8-4.4,4.5c-1.3,1.8-2.3,3.7-2.9,5.8v40.2h-17.6v-68.9h15.9V175c2.5-4.4,6.2-7.8,11-10.2
		c4.8-2.5,10.3-3.7,16.3-3.7c4.3,0,7.8,0.8,10.5,2.4c2.7,1.6,4.8,3.6,6.3,6.2c1.5,2.5,2.5,5.4,3.1,8.7c0.6,3.2,0.9,6.5,0.9,9.9
		V231.2z"/>
	<path class="st5" d="M365.7,232.5c-3.3,0-6.4-0.5-9.3-1.6c-2.9-1.1-5.4-2.6-7.5-4.6c-2.1-2-3.7-4.3-4.9-6.9
		c-1.2-2.6-1.8-5.5-1.8-8.7c0-3.2,0.7-6.2,2.2-9c1.4-2.8,3.5-5.1,6-7c2.6-1.9,5.7-3.4,9.3-4.5c3.6-1.1,7.5-1.6,11.8-1.6
		c3.1,0,6.1,0.3,9,0.8c2.9,0.5,5.5,1.3,7.8,2.2v-3.9c0-4.6-1.3-8.1-3.9-10.5c-2.6-2.5-6.4-3.7-11.5-3.7c-3.7,0-7.3,0.7-10.8,2
		c-3.5,1.3-7.1,3.2-10.8,5.8l-5.4-11.2c8.8-5.9,18.4-8.8,28.6-8.8c9.9,0,17.6,2.4,23.1,7.3c5.5,4.9,8.2,11.9,8.2,21.1v21.4
		c0,1.8,0.3,3.2,1,3.9c0.7,0.8,1.7,1.2,3.2,1.3v15c-3,0.6-5.6,0.9-7.8,0.9c-3.3,0-5.9-0.7-7.7-2.2c-1.8-1.5-2.9-3.5-3.4-5.9
		l-0.4-3.8c-3.1,4-6.8,7.1-11.2,9.2C375.4,231.4,370.7,232.5,365.7,232.5z M370.7,219.6c3,0,5.8-0.5,8.5-1.6
		c2.7-1.1,4.8-2.5,6.2-4.2c1.9-1.5,2.9-3.2,2.9-5v-7.9c-2.1-0.8-4.4-1.4-6.8-1.9c-2.5-0.5-4.8-0.7-7.1-0.7c-4.6,0-8.3,1-11.2,3.1
		c-2.9,2.1-4.3,4.7-4.3,7.8c0,3,1.1,5.5,3.4,7.4C364.5,218.6,367.3,219.6,370.7,219.6z"/>
	<path class="st5" d="M422.3,196.1c0-4.8,0.8-9.4,2.5-13.7c1.7-4.3,4.1-8.1,7.2-11.3c3.2-3.2,7-5.8,11.4-7.8
		c4.5-1.9,9.5-2.9,15.1-2.9c7.5,0,13.9,1.6,19.3,4.9c5.3,3.2,9.3,7.5,11.9,12.7l-17.2,5.3c-1.5-2.5-3.5-4.5-5.9-5.8
		c-2.5-1.4-5.2-2-8.1-2c-2.5,0-4.9,0.5-7.1,1.5c-2.2,1-4.1,2.4-5.7,4.2c-1.6,1.8-2.9,4-3.8,6.5c-0.9,2.5-1.4,5.3-1.4,8.4
		c0,3.1,0.5,5.9,1.4,8.4c1,2.5,2.3,4.7,3.9,6.6c1.6,1.8,3.5,3.3,5.7,4.3c2.2,1,4.5,1.5,7,1.5c3.2,0,6.1-0.8,8.7-2.4
		c2.7-1.6,4.5-3.5,5.6-5.8l17.2,5.3c-2.4,5.3-6.3,9.5-11.7,12.9c-5.4,3.3-12,5-19.6,5c-5.6,0-10.6-1-15.1-2.9
		c-4.5-1.9-8.3-4.5-11.4-7.8c-3.2-3.3-5.6-7.1-7.3-11.4C423.2,205.3,422.3,200.8,422.3,196.1z"/>
	<rect x="502.2" y="137.3" class="st5" width="17.6" height="17.5"/>
	<rect x="174.4" y="50.1" class="st5" width="17.6" height="17.5"/>
	<rect x="140.5" y="163.9" class="st5" width="17.6" height="17.5"/>
	<rect x="502.2" y="162.3" class="st5" width="17.6" height="68.9"/>
	<path class="st5" d="M570.4,232.5c-5.6,0-10.6-1-15.1-2.9c-4.5-1.9-8.3-4.5-11.4-7.8c-3.1-3.3-5.5-7.1-7.2-11.4
		c-1.7-4.3-2.5-8.8-2.5-13.5c0-4.8,0.8-9.4,2.5-13.7c1.7-4.3,4.1-8.1,7.2-11.4c3.1-3.3,6.9-5.9,11.4-7.8c4.5-1.9,9.5-2.9,15.1-2.9
		c5.6,0,10.6,1,15,2.9c4.4,1.9,8.2,4.5,11.3,7.8c3.1,3.3,5.5,7.1,7.2,11.4c1.7,4.3,2.5,8.8,2.5,13.7c0,4.7-0.8,9.2-2.5,13.5
		c-1.7,4.3-4,8.1-7.1,11.4c-3.1,3.3-6.8,5.9-11.3,7.8C581,231.5,576,232.5,570.4,232.5z M552.4,196.9c0,3.1,0.5,5.8,1.4,8.3
		c0.9,2.5,2.2,4.7,3.8,6.5c1.6,1.8,3.5,3.3,5.7,4.3c2.2,1,4.6,1.5,7.1,1.5c2.5,0,4.9-0.5,7.1-1.5c2.2-1,4.1-2.4,5.7-4.3
		c1.6-1.8,2.9-4,3.8-6.6c0.9-2.5,1.4-5.3,1.4-8.4c0-3-0.5-5.7-1.4-8.3c-0.9-2.5-2.2-4.7-3.8-6.6c-1.6-1.8-3.5-3.3-5.7-4.3
		c-2.2-1-4.6-1.5-7.1-1.5c-2.5,0-4.9,0.5-7.1,1.6c-2.2,1.1-4.1,2.5-5.7,4.3c-1.6,1.8-2.9,4-3.8,6.6
		C552.9,191.1,552.4,193.9,552.4,196.9z"/>
	<path class="st5" d="M689.5,201.4L614.4,246v-21.8L661,196l-46.6-28.9v-20.9l75.1,45.3V201.4z"/>
	<path class="st5" d="M49.6,103.2l73.2-44.3v20.4l-45.5,28.2l45.5,27.5v21.3l-73.2-43.6V103.2z"/>
</g>
</svg>
